<svg width="180" height="38" viewBox="0 0 180 38" fill="none" xmlns="http://www.w3.org/2000/svg">
<g clip-path="url(#clip0_7945_21485)">
<path d="M72.8036 28.947C72.8036 31.2851 72.9168 33.773 72.9537 34.1885H67.9343C67.7842 33.66 67.7079 32.3791 67.7079 31.8136C66.6499 33.5862 64.4256 34.7171 60.6512 34.7171C55.2923 34.7171 53.1787 31.4744 53.1787 28.4209C53.1787 23.4056 57.6691 21.9723 63.3282 21.9723H67.5923V21.2569C67.5923 19.5237 66.8369 18.0141 63.5915 18.0141C60.6094 18.0141 59.9303 19.2213 59.6301 20.539H54.2711C54.4606 18.0879 56.1584 14.319 63.5152 14.319C71.4774 14.319 72.7987 18.0904 72.7987 21.3331V28.9495L72.8036 28.947ZM67.5947 25.4412H63.407C59.8983 25.4412 58.3876 26.3091 58.3876 28.1554C58.3876 29.6256 59.5194 30.8327 62.0857 30.8327C66.0102 30.8327 67.5947 28.8339 67.5947 25.9305V25.4412Z" fill="#003366"/>
<path d="M78.0198 20.0866C78.0198 18.3534 78.0198 16.5808 77.9829 14.8452H83.1894C83.3025 15.4868 83.3788 17.5987 83.3788 18.8402C84.5106 16.1629 87.0007 14.2404 90.9621 14.3166V19.2188C86.5479 19.1819 83.3788 21.2176 83.3788 26.7983V34.1885H78.0198V20.0866Z" fill="#003366"/>
<path d="M94.8742 10.737V6.02411H100.233V10.737H94.8742ZM94.8742 14.8452H100.233V34.1885H94.8742V14.8452Z" fill="#003366"/>
<path d="M105.262 19.7105C105.262 18.0879 105.262 16.2416 105.226 14.8476H110.432C110.508 15.4131 110.545 16.7333 110.582 17.6749C111.451 16.1678 113.298 14.319 117.186 14.319C121.903 14.319 124.772 17.2225 124.772 22.3116V34.1885H119.376V23.1794C119.376 20.6521 118.394 18.5034 115.375 18.5034C112.13 18.5034 110.621 20.8414 110.621 24.6496V34.1885H105.262V19.7105Z" fill="#003366"/>
<path d="M127.751 14.8452H131.336V8.962H136.695V14.8452H141.375V18.7664H136.695V27.703C136.695 29.5494 137.111 30.3803 139.072 30.3803C139.601 30.3803 140.28 30.3435 140.809 30.2304V33.9255C139.828 34.2647 138.546 34.341 137.224 34.341C132.697 34.341 131.339 32.3791 131.339 28.5733V18.7689H127.754V14.8476L127.751 14.8452Z" fill="#003366"/>
<path d="M145.627 20.0866C145.627 18.3534 145.627 16.5808 145.59 14.8452H150.796C150.91 15.4868 150.986 17.5987 150.986 18.8402C152.118 16.1629 154.608 14.2404 158.569 14.3166V19.2188C154.155 19.1819 150.986 21.2176 150.986 26.7983V34.1885H145.627V20.0866Z" fill="#003366"/>
<path d="M179.85 28.947C179.85 31.2851 179.963 33.773 180 34.1885H174.981C174.83 33.66 174.754 32.3791 174.754 31.8136C173.696 33.5862 171.472 34.7171 167.698 34.7171C162.339 34.7171 160.225 31.4744 160.225 28.4209C160.225 23.4056 164.715 21.9723 170.375 21.9723H174.639V21.2569C174.639 19.5237 173.883 18.0141 170.64 18.0141C167.658 18.0141 166.979 19.2213 166.676 20.539H161.317C161.507 18.0879 163.205 14.319 170.562 14.319C178.524 14.319 179.845 18.0904 179.845 21.3331V28.9495L179.85 28.947ZM174.644 25.4412H170.456C166.947 25.4412 165.436 26.3091 165.436 28.1554C165.436 29.6256 166.568 30.8327 169.134 30.8327C173.059 30.8327 174.644 28.8339 174.644 25.9305V25.4412Z" fill="#003366"/>
<path d="M30.9973 0.797371L30.9137 0.632652H30.6602H30.2395H18.8376L24.5385 12.0154L24.7477 12.4358L24.9593 12.8538L37.2371 37.3673H49.2813L30.9973 0.797371Z" fill="#3AC7CE"/>
<path d="M18.1806 0.994049L0 37.3575L11.8497 37.3501L24.1178 12.8538L18.1806 0.994049Z" fill="#3AC7CE"/>
<path d="M18.808 25.1339L12.893 36.9445C16.7141 34.3164 20.5353 31.6858 24.3564 29.0577C22.7743 27.9292 21.1553 26.7786 19.4699 25.5814C19.2485 25.4314 19.0295 25.2839 18.808 25.1339Z" fill="#3AC7CE"/>
<path d="M19.716 24.8364C22.5431 26.8426 25.1684 28.7135 27.7839 30.5795C30.4093 32.4528 33.0469 34.336 35.8888 36.3495L30.1362 24.8635C26.6644 24.8537 23.1902 24.8463 19.7184 24.8364H19.716Z" fill="#3AC7CE"/>
</g>
<defs>
<clipPath id="clip0_7945_21485">
<rect width="180" height="36.7347" fill="white" transform="translate(0 0.632652)"/>
</clipPath>
</defs>
</svg>
