<svg xmlns="http://www.w3.org/2000/svg" fill="#000000" aria-hidden="true" viewBox="0 0 112 36"><path d="M23.702 18.005V34.95c0 .589-.138.728-.726.728-.945.001-1.89.002-2.836 0-.517-.002-.67-.154-.67-.669.01-5.638.005-11.277.036-16.914.013-2.526.1-5.052.153-7.577.002-.077.006-.154.005-.23-.002-.212-.02-.43-.29-.448-.263-.017-.36.164-.384.403-.033.325-.075.648-.107.973l-.63 6.563c-.325 3.412-.647 6.824-.975 10.234-.227 2.37-.462 4.739-.694 7.107-.037.38-.216.553-.596.556-.755.006-1.509.003-2.263.002-.473-.002-.653-.165-.7-.645-.067-.688-.123-1.377-.188-2.064-.136-1.434-.276-2.867-.416-4.3l-.488-5.016a5596.136 5596.136 0 0 1-1.146-11.838c-.049-.506-.091-1.013-.137-1.52a1.35 1.35 0 0 0-.03-.17c-.044-.195-.162-.304-.366-.287-.217.02-.282.17-.28.365l.033 2.19c.053 3.226.134 6.453.155 9.68.028 4.274.01 8.548.01 12.823 0 .643-.136.782-.769.782-.936 0-1.872.002-2.808 0-.518-.002-.68-.169-.68-.697-.001-11.315-.001-22.63 0-33.945 0-.545.157-.701.7-.701H12c.46 0 .624.126.68.59.19 1.562.37 3.126.551 4.689.273 2.345.576 4.687.803 7.037.192 1.986.295 3.981.436 5.972.015.201-.008.412.047.6.031.107.182.241.285.247.105.004.245-.114.316-.216.059-.083.05-.221.051-.335.015-2.684.303-5.346.63-8.006.367-3 .692-6.006 1.036-9.009.04-.353.081-.705.13-1.057.049-.354.22-.511.573-.512 1.863-.003 3.725-.003 5.588 0 .427 0 .576.18.576.67zM78.639 18.007V1.12c0-.654.133-.786.791-.786 1.566 0 3.133-.006 4.7.004.94.005 1.843.19 2.65.701 1.108.703 1.677 1.764 1.889 3.026.096.575.142 1.164.146 1.747.015 2.42.014 4.841-.002 7.262a8.771 8.771 0 0 1-.157 1.486c-.216 1.204-.961 1.947-2.096 2.323-.199.065-.414.094-.6.185-.109.054-.239.198-.24.302 0 .089.155.22.267.261.25.092.519.13.774.206 1.18.357 1.826 1.168 1.973 2.387.043.352.082.708.083 1.062.007 3.083.016 6.167-.002 9.25-.007 1.164-.209 2.293-.87 3.291-.667 1.006-1.622 1.554-2.784 1.735-.535.084-1.083.105-1.625.111-1.394.014-2.789.006-4.183.004-.554 0-.712-.163-.712-.727-.003-5.647-.002-11.295-.002-16.943m4.26 7.455v5.214c0 .748 0 .748.74.732.434-.01.716-.199.824-.619.07-.275.098-.568.099-.853.007-2.976.004-5.953.003-8.93 0-.143-.006-.287-.02-.43-.08-.805-.338-1.039-1.132-1.037-.464.001-.513.047-.513.508-.001 1.805 0 3.61 0 5.415m0-15.52v4.548c0 .8 0 .8.79.773.363-.012.639-.176.739-.526.082-.29.13-.6.132-.902.01-2.6.006-5.2.005-7.8 0-.125-.007-.25-.02-.373-.083-.827-.343-1.06-1.171-1.057-.44.001-.474.033-.474.473zM37.21 17.999c0-4.187-.013-8.374.012-12.56.005-.78.08-1.58.261-2.337.41-1.718 1.586-2.652 3.285-2.948 1.287-.224 2.569-.202 3.823.196 1.45.46 2.286 1.494 2.575 2.959.141.72.208 1.465.21 2.199.014 8.325.007 16.65.01 24.975 0 .83-.053 1.65-.267 2.453-.383 1.436-1.272 2.395-2.703 2.776-1.486.396-2.985.399-4.461-.076-1.43-.459-2.233-1.504-2.525-2.937a11.163 11.163 0 0 1-.21-2.17c-.02-4.176-.01-8.354-.01-12.53m4.256.013c0 4.1-.003 8.2.005 12.299 0 .312.04.635.127.933.099.338.385.487.737.47.352-.016.614-.193.698-.533.066-.268.103-.549.103-.824.006-8.228.006-16.456.002-24.685 0-.247-.023-.5-.074-.742-.09-.432-.344-.621-.768-.62-.42.001-.678.197-.762.63-.052.271-.065.553-.066.83-.003 4.08-.002 8.161-.002 12.242M60.891 26.718v-4.755c.001-.603.151-.754.741-.755.573 0 1.146-.008 1.72.002 1.13.021 1.777.667 1.782 1.805.011 2.44.004 4.88.01 7.32.001.248.022.5.074.742.092.43.36.637.765.636.407-.001.69-.235.77-.67a3.83 3.83 0 0 0 .062-.687c.004-2.756.004-5.514.002-8.27-.001-1.091-.387-1.635-1.41-2.013-.582-.215-1.16-.444-1.746-.646-1.88-.65-2.787-1.974-2.766-3.968.012-1.172-.004-2.344-.004-3.516-.002-2.16-.004-4.322.001-6.483.003-.866.051-1.726.314-2.563.426-1.352 1.299-2.24 2.663-2.604 1.541-.41 3.087-.408 4.597.126 1.34.475 2.1 1.498 2.375 2.87.13.654.202 1.331.207 1.999.022 2.93.01 5.859.01 8.789 0 .556-.142.7-.693.703-.602.003-1.203.007-1.805-.006-1.115-.023-1.734-.645-1.738-1.772-.01-2.44 0-4.88-.01-7.32a3.734 3.734 0 0 0-.112-.88c-.084-.336-.325-.485-.687-.495-.395-.01-.633.117-.74.459a2.628 2.628 0 0 0-.126.76c-.009 2.834-.01 5.668-.004 8.502.001.96.426 1.538 1.319 1.87.796.297 1.596.585 2.375.922 1.377.595 2.093 1.673 2.186 3.174.015.249.032.498.032.748.003 3.343.003 6.685.001 10.028 0 .83-.08 1.65-.34 2.442-.437 1.341-1.36 2.182-2.706 2.526a8.073 8.073 0 0 1-4.082-.005c-1.556-.405-2.493-1.45-2.815-3.012-.146-.709-.194-1.445-.213-2.171-.033-1.277-.009-2.554-.009-3.832M49.057 26.582v-4.697c0-.504.167-.68.668-.675.734.009 1.47-.005 2.201.057.733.063 1.25.632 1.333 1.365.025.228.038.46.038.69.003 2.323-.002 4.647.007 6.972 0 .294.03.597.104.88.097.376.374.548.75.54.379-.01.652-.22.735-.602a3.31 3.31 0 0 0 .071-.684c.005-2.805.005-5.608.003-8.413-.002-1.024-.397-1.575-1.36-1.927-.662-.243-1.329-.478-1.984-.74-1.162-.464-2.081-1.188-2.391-2.476a6.12 6.12 0 0 1-.167-1.396C49.05 12 49.04 8.523 49.07 5.047c.006-.71.128-1.437.309-2.125C49.743 1.538 50.666.66 52.04.29a7.907 7.907 0 0 1 4.215.006c1.587.436 2.468 1.531 2.777 3.113.11.57.176 1.16.18 1.743.017 2.986.009 5.973.008 8.96 0 .513-.152.664-.67.668-.553.005-1.107.007-1.66 0-1.337-.02-1.92-.614-1.921-1.953-.002-2.382.002-4.763-.004-7.145 0-.257-.019-.52-.07-.77-.082-.407-.326-.594-.72-.605-.427-.01-.672.151-.78.567-.062.239-.09.492-.09.74-.007 2.785-.007 5.57-.003 8.355.002 1.045.419 1.596 1.401 1.959.823.304 1.653.6 2.447.97 1.285.595 1.951 1.642 2.02 3.065.026.527.048 1.055.05 1.582.004 3.054.018 6.108-.01 9.162-.008.742-.09 1.5-.262 2.22-.378 1.58-1.423 2.53-2.995 2.861-1.373.29-2.748.29-4.103-.133-1.47-.459-2.279-1.521-2.593-2.983a9.475 9.475 0 0 1-.19-1.8c-.029-1.429-.01-2.86-.01-4.292M25.387 18.009V1.067c0-.6.13-.732.717-.732 1.585 0 3.17-.009 4.755.004.759.006 1.499.128 2.197.457 1.308.618 2.021 1.692 2.303 3.072.117.569.183 1.16.185 1.74.014 4.87.01 9.74.006 14.609-.001.897-.105 1.785-.45 2.62-.657 1.593-1.892 2.405-3.56 2.594-.445.05-.895.051-1.343.06-.554.009-.567.014-.567.56v8.73c0 .809-.087.898-.881.898h-2.693c-.512-.002-.668-.16-.669-.671zm4.243-5.111v7.546c0 .793 0 .788.793.767.37-.009.635-.18.74-.522a2.92 2.92 0 0 0 .128-.845c.008-3.024.006-6.048.006-9.072 0-1.651.004-3.302-.003-4.954-.004-.892-.336-1.218-1.202-1.213-.427.002-.461.035-.461.487zM99.513 18.001V1.262c0-.134-.005-.269.004-.403.022-.334.195-.51.527-.522.267-.01.535-.003.802-.003h6.331c.55 0 .695.145.695.699.002.97.002 1.94 0 2.91-.001.497-.159.659-.65.66-1.012.004-2.025 0-3.037.003-.355 0-.416.058-.416.421v9.824c0 .366.051.412.418.412.592.002 1.184-.001 1.776.002.423.002.615.187.617.614.005 1.018.006 2.037 0 3.054-.003.407-.197.6-.605.605-.592.007-1.184 0-1.776.003-.372.002-.43.06-.43.44v10.977c0 .395.058.45.45.45 1.003.002 2.005 0 3.008.002.478 0 .644.163.645.634.002.999.002 1.998 0 2.997-.001.473-.166.637-.644.638-2.339.002-4.679.001-7.018 0-.537 0-.697-.162-.697-.708zM90.485 17.977V1.037c0-.44.108-.624.41-.688.083-.018.17-.012.257-.012h2.864c.567 0 .717.145.717.71v29.79c0 .54.034.573.566.573.773 0 1.546-.002 2.32 0 .447.002.622.177.624.632.004 1.008.004 2.016 0 3.025-.002.43-.185.611-.617.613-2.177.002-4.354.003-6.531 0-.448 0-.61-.187-.61-.675zM76.98 18.006v16.797c0 .126.005.25-.006.375-.027.303-.193.49-.496.492-1.079.011-2.158.012-3.237 0-.328-.003-.494-.204-.508-.54-.004-.086-.001-.172-.001-.259V1.131c0-.095-.004-.192.002-.287.023-.318.192-.503.51-.506 1.08-.008 2.159-.008 3.238 0 .287.003.456.178.49.466.015.134.008.27.008.403zM0 17.979V1.066C0 .47.135.333.718.333c.964-.001 1.929-.002 2.893 0 .454.001.624.17.636.621.003.106.001.212.001.317v33.595c0 .687-.122.81-.797.811-.916 0-1.833.002-2.75 0-.549-.001-.701-.154-.701-.699zM110.79.836c-.043.467-.091.933-.128 1.4-.013.154-.047.253-.231.25-.191-.005-.173-.133-.184-.258-.036-.41-.077-.82-.16-1.229 0 .407.009.813-.007 1.219-.003.088-.09.173-.139.26-.046-.087-.131-.173-.133-.26-.011-.613-.006-1.226-.006-1.83.45-.117.494-.088.521.325.027.401.054.802.139 1.208.018-.197.037-.393.054-.59.017-.2.031-.402.049-.602.035-.42.035-.42.522-.37v.67c0 .403.007.806-.007 1.209-.002.08-.083.158-.128.237-.046-.077-.13-.152-.132-.23-.013-.468-.007-.938-.007-1.406a.31.31 0 0 0-.023-.003M109.694.337c-.08.133-.116.256-.164.26-.21.022-.204.16-.203.31.001.44.008.883-.007 1.324-.003.084-.086.225-.151.238-.187.036-.17-.127-.171-.25-.002-.441-.001-.883-.001-1.324 0-.134.023-.274-.181-.294-.041-.004-.092-.102-.101-.162-.004-.026.085-.095.135-.097.254-.01.509-.005.844-.005"></path></svg>