<svg width="120" height="31" viewBox="0 0 120 31" fill="none" xmlns="http://www.w3.org/2000/svg">
<path d="M3.18304 8.07544L3.42056 3.08766C3.42056 2.73139 3.73724 2.61263 4.1331 2.81056L8.09165 5.1461C8.48751 5.38362 8.80419 5.85865 8.76461 6.21492L8.64585 11.0839C8.64585 11.4402 8.28958 11.5986 7.89372 11.361L3.81641 9.10466C3.46014 8.94632 3.14346 8.47129 3.18304 8.07544Z" fill="#00F5BC"/>
<path d="M5.32064 18.0906L0.372447 17.8531C0.0161776 17.8531 -0.102579 17.5364 0.0953484 17.1406L2.4309 13.182C2.66841 12.7862 3.14344 12.4695 3.49971 12.5091L8.36873 12.6278C8.725 12.6278 8.88334 12.9841 8.64583 13.38L6.42904 17.4573C6.19152 17.8135 5.7165 18.1302 5.32064 18.0906Z" fill="#7B2EFF"/>
<path d="M14.4255 29.2141C14.1088 29.5308 13.7525 29.6891 13.3171 29.6891C12.8816 29.6891 12.4858 29.5308 12.2087 29.2141C11.892 28.8974 11.7336 28.5411 11.7336 28.1057V10.688C11.7336 10.2526 11.892 9.89633 12.2087 9.57965C12.5254 9.26296 12.8816 9.10461 13.3171 9.10461C13.7525 9.10461 14.1484 9.26296 14.4255 9.57965C14.7421 9.89633 14.9005 10.2526 14.9005 10.688V28.1057C14.8609 28.5015 14.7026 28.8974 14.4255 29.2141Z" fill="#333333"/>
<path d="M23.0155 29.2538C22.6988 29.5309 22.3425 29.6892 21.9071 29.6892C21.4716 29.6892 21.1154 29.5309 20.8383 29.2538C20.5612 28.9767 20.4028 28.6204 20.4028 28.185V10.5298C20.4028 10.1339 20.5216 9.77767 20.7987 9.50057C21.0758 9.22347 21.3925 9.10472 21.7883 9.10472C22.1842 9.10472 22.5405 9.26306 22.8175 9.50057C23.0946 9.77767 23.253 10.1339 23.253 10.5298V12.1528C23.253 12.1924 23.253 12.1924 23.2926 12.1924C23.3322 12.1924 23.3322 12.1924 23.3717 12.1528C25.2719 9.85685 27.5282 8.70886 30.1409 8.70886C32.5556 8.70886 34.2974 9.38182 35.3662 10.7277C36.435 12.0736 36.9892 14.2904 36.9892 17.4177V28.185C36.9892 28.6204 36.8704 28.9767 36.5933 29.2538C36.3162 29.5309 35.96 29.6892 35.5245 29.6892C35.0891 29.6892 34.7328 29.5309 34.4557 29.2538C34.1786 28.9767 34.0203 28.6204 34.0203 28.185V17.8135C34.0203 15.2009 33.664 13.4195 32.9514 12.4695C32.2389 11.5194 31.0513 11.084 29.3492 11.084C27.9637 11.084 26.6573 11.7174 25.351 13.0237C24.0447 14.2904 23.4113 15.5967 23.4113 16.9427V28.185C23.4509 28.5808 23.2926 28.9371 23.0155 29.2538Z" fill="#333333"/>
<path d="M51.0815 30.0851C47.9543 30.0851 45.5791 29.1746 43.8769 27.3932C42.2144 25.5723 41.3831 22.9201 41.3831 19.397C41.3831 15.9134 42.1748 13.2612 43.8374 11.4403C45.4604 9.61933 47.7563 8.70886 50.6857 8.70886C52.0712 8.70886 53.4962 8.86721 55.0401 9.14431C55.3963 9.22348 55.713 9.4214 55.9505 9.6985C56.1881 10.0152 56.3464 10.3715 56.3464 10.7673C56.3464 11.084 56.2276 11.3215 55.9505 11.5194C55.6734 11.7174 55.3568 11.7569 55.0797 11.6778C53.7337 11.3215 52.3482 11.1632 50.9232 11.1632C46.6875 11.1632 44.5895 13.8946 44.5895 19.397C44.5895 22.2471 45.1437 24.3452 46.2521 25.6515C47.3605 26.9578 49.0626 27.6308 51.319 27.6308C52.7837 27.6308 54.1296 27.4328 55.3568 27.037C55.6339 26.9182 55.9109 26.9578 56.188 27.1557C56.4651 27.3537 56.5839 27.5912 56.5839 27.9079C56.5839 28.3037 56.4651 28.66 56.2276 28.9767C55.9901 29.2934 55.6734 29.4913 55.2776 29.61C54.0108 29.9267 52.6254 30.0851 51.0815 30.0851Z" fill="#333333"/>
<path d="M67.1533 30.085C64.8573 30.085 63.1947 29.4516 62.0864 28.1849C60.978 26.9181 60.5029 24.8201 60.5029 21.8907V10.6089C60.5029 10.1734 60.6217 9.81716 60.8988 9.54006C61.1759 9.26296 61.5322 9.10461 61.9676 9.10461C62.403 9.10461 62.7593 9.26296 63.0364 9.54006C63.3135 9.81716 63.4718 10.1734 63.4718 10.6089V21.4949C63.4718 23.87 63.8281 25.493 64.5407 26.4035C65.2532 27.2744 66.4012 27.7098 67.945 27.7098C69.3701 27.7098 70.716 27.116 71.9827 25.8889C73.2495 24.6617 73.8828 23.3158 73.8828 21.8512V10.6089C73.8828 10.1734 74.0412 9.81716 74.3579 9.54006C74.6746 9.26296 75.0308 9.10461 75.4663 9.10461C75.9017 9.10461 76.258 9.26296 76.5351 9.54006C76.8122 9.81716 76.9705 10.1734 76.9705 10.6089V28.264C76.9705 28.6599 76.8518 28.9766 76.5747 29.2537C76.2976 29.5308 75.9809 29.6495 75.585 29.6495C75.1892 29.6495 74.8329 29.5308 74.5558 29.2537C74.2787 28.9766 74.1204 28.6599 74.1204 28.264V26.641C74.1204 26.6014 74.1204 26.6014 74.0808 26.6014C74.0412 26.6014 74.0412 26.6014 74.0016 26.641C72.1015 28.937 69.8451 30.085 67.1533 30.085Z" fill="#333333"/>
<path d="M91.4194 30.0851C88.1734 30.0851 85.719 29.2142 84.0169 27.3932C82.3147 25.6119 81.4834 22.9597 81.4834 19.397C81.4834 15.7155 82.2751 13.0237 83.9377 11.2819C85.5607 9.54016 87.7775 8.70886 90.5881 8.70886C95.7738 8.70886 98.5448 11.7965 98.8615 17.9323C98.901 18.5657 98.6635 19.1199 98.1885 19.5553C97.7135 19.9907 97.1989 20.1887 96.5259 20.1887H84.8086C84.6107 20.1887 84.4919 20.3074 84.4919 20.5449C84.7294 25.3744 87.1045 27.7891 91.6569 27.7891C93.1611 27.7891 94.705 27.512 96.2884 26.9578C96.5655 26.839 96.8426 26.8786 97.1197 27.037C97.3968 27.1953 97.5155 27.4328 97.5155 27.7495C97.5155 28.66 97.1197 29.2142 96.2884 29.4121C94.6654 29.8475 93.0028 30.0851 91.4194 30.0851ZM90.5881 11.0048C86.9066 11.0048 84.9273 13.182 84.5711 17.5364C84.5711 17.7344 84.6898 17.8531 84.9273 17.8531H95.5759C95.7738 17.8531 95.8925 17.7344 95.8925 17.5364C95.7342 13.182 93.9924 11.0048 90.5881 11.0048Z" fill="#333333"/>
<path d="M110.341 30.085C107.887 30.085 105.907 29.135 104.324 27.2349C102.78 25.3348 102.028 22.7221 102.028 19.3969C102.028 15.9926 102.78 13.3799 104.284 11.4798C105.789 9.61929 107.808 8.70882 110.341 8.70882C112.914 8.70882 115.091 9.73805 116.793 11.7569C116.833 11.7965 116.833 11.7965 116.873 11.7965C116.912 11.7965 116.912 11.7965 116.912 11.7569V1.50425C116.912 1.06881 117.071 0.712542 117.387 0.435443C117.704 0.158345 118.06 0 118.496 0C118.931 0 119.287 0.158345 119.564 0.435443C119.842 0.712542 120 1.06881 120 1.50425V28.2641C120 28.6599 119.881 28.9766 119.604 29.2537C119.327 29.5308 119.01 29.6496 118.614 29.6496C118.219 29.6496 117.862 29.5308 117.585 29.2537C117.308 28.9766 117.15 28.6599 117.15 28.2641V26.7994C117.15 26.7598 117.15 26.7598 117.11 26.7598C117.071 26.7598 117.071 26.7598 117.031 26.7994C115.21 28.9766 112.993 30.085 110.341 30.085ZM110.974 11.084C107.016 11.084 105.037 13.8549 105.037 19.3969C105.037 22.1283 105.551 24.2264 106.62 25.6119C107.649 26.9973 109.114 27.7099 110.974 27.7099C112.518 27.7099 113.864 27.1953 115.091 26.1265C116.318 25.0576 116.912 23.8305 116.912 22.4846V16.3884C116.912 15.0425 116.318 13.8154 115.131 12.7466C113.904 11.5986 112.558 11.084 110.974 11.084Z" fill="#333333"/>
</svg>
