<svg xmlns="http://www.w3.org/2000/svg" width="1648" height="256" viewBox="0 0 1648 256" fill="none"><rect x="1134.27" y="26.801" width="5.36342" height="188.185" fill="#010101"></rect><path d="M280.753 55.8079C272.024 49.752 261.446 46.7754 248.916 46.7754C236.387 46.7754 227.247 49.5468 218.826 55.1921C210.404 60.8375 203.728 68.6383 198.902 78.6975C194.075 88.7566 191.199 100.355 190.378 113.596C190.173 116.47 190.069 120.37 190.069 125.195C190.069 130.019 190.069 133.919 190.378 136.793C191.816 156.705 197.567 172.924 207.734 185.241C217.901 197.557 231.663 203.716 248.916 203.716C266.17 203.716 264.835 202.485 271.715 199.919C278.494 197.352 284.245 194.17 288.97 190.27C293.694 186.37 297.391 182.469 299.958 178.466C302.526 174.463 303.963 171.178 304.066 168.407C304.271 165.43 302.423 163.275 299.547 162.762C297.288 162.351 294.309 162.351 292.05 162.762C290.715 162.967 289.585 163.48 288.661 164.506C287.737 165.533 286.915 166.662 286.196 167.894C285.272 169.434 283.321 171.692 280.342 174.771C277.261 177.748 273.256 180.519 268.121 183.085C262.986 185.651 256.619 186.883 249.019 186.883C241.42 186.883 233.1 184.419 226.836 179.493C220.571 174.566 215.744 168.202 212.355 160.299C208.966 152.498 207.117 144.183 206.707 135.459V132.585H302.012C303.758 132.585 305.298 131.969 306.428 130.84C307.558 129.711 308.174 128.171 308.174 126.221V121.91C308.174 106.411 305.812 93.067 301.088 81.7763C296.364 70.4855 289.585 61.8639 280.856 55.9106L280.753 55.8079ZM291.639 116.265H206.502V115.136C206.502 105.487 208.144 96.7627 211.431 88.9617C214.717 81.1608 219.544 75.0018 225.912 70.4855C232.279 65.9696 239.879 63.6089 248.814 63.6089C257.749 63.6089 265.451 65.8669 271.818 70.4855C278.186 75.1051 283.115 81.1608 286.504 88.9617C289.893 96.7627 291.639 105.487 291.639 115.136V116.265Z" fill="#010101"></path><path d="M401.414 186.984H386.933C378.923 186.984 373.377 184.11 370.193 178.259C367.01 172.409 365.469 164.403 365.469 154.138V63.71H401.311C403.057 63.71 404.495 63.0942 405.625 61.9651C406.652 60.836 407.268 59.2964 407.268 57.3462V53.2405C407.268 51.2903 406.754 49.7506 405.625 48.6215C404.495 47.4925 403.159 46.8766 401.311 46.8766H365.469V7.5644C365.469 5.61422 364.956 4.07457 363.826 2.94551C362.696 1.81643 361.361 1.20056 359.512 1.20056H354.994C353.247 1.20056 351.81 1.81643 350.68 2.94551C349.55 4.07457 349.037 5.71686 349.037 7.5644V46.8766H328.189C326.443 46.8766 325.006 47.4925 323.876 48.6215C322.849 49.7506 322.232 51.2903 322.232 53.2405V57.3462C322.232 59.2964 322.746 60.836 323.876 61.9651C325.006 63.0942 326.341 63.71 328.189 63.71H349.037V155.267C349.037 164.403 350.064 172.614 352.221 180.004C354.377 187.394 358.075 193.246 363.518 197.453C368.858 201.765 376.15 203.818 385.495 203.818H401.311C403.057 203.818 404.495 203.201 405.625 202.072C406.754 200.943 407.268 199.404 407.268 197.453V193.348C407.268 191.398 406.754 189.858 405.625 188.729C404.495 187.497 403.057 186.984 401.311 186.984H401.414Z" fill="#010101"></path><path d="M530.078 63.5061C526.279 58.5793 520.835 54.5763 514.057 51.3943C507.279 48.2124 498.447 46.7754 487.972 46.7754C477.496 46.7754 471.437 48.1098 465.172 50.8811C458.907 53.6525 453.875 56.937 449.973 60.9401C446.07 64.9432 443.092 68.9462 441.243 73.0521C439.395 77.1574 438.47 80.5446 438.47 83.2138C438.47 85.8823 438.881 86.4984 439.806 87.7301C440.73 88.9617 442.168 89.5772 444.325 89.5772H448.637C451.103 89.5772 452.848 88.1404 453.773 85.2668C455.929 78.9027 459.832 73.6676 465.583 69.7674C471.334 65.7644 478.831 63.8141 488.074 63.8141C497.317 63.8141 509.949 66.7908 515.803 72.6411C521.555 78.5949 524.532 86.601 524.532 96.8653V107.027L482.22 113.39C466.507 115.751 453.773 120.884 443.913 128.787C434.055 136.793 429.227 147.263 429.227 160.504C429.227 173.744 431.487 176.002 435.903 182.469C440.319 188.936 446.173 194.17 453.465 197.968C460.654 201.868 468.561 203.819 477.188 203.819C485.815 203.819 494.134 202.587 500.296 200.227C506.457 197.763 511.49 194.889 515.392 191.399C519.295 187.909 522.376 184.419 524.532 180.93V197.455C524.532 199.405 525.046 200.945 526.176 202.074C527.306 203.203 528.641 203.819 530.49 203.819H535.008C536.754 203.819 538.191 203.203 539.321 202.074C540.451 200.945 540.965 199.405 540.965 197.455V97.6859C540.965 91.8354 540.143 85.9848 538.603 79.9291C537.062 73.976 534.289 68.433 530.49 63.5061H530.078ZM524.327 132.893C524.327 145.107 522.273 155.269 518.268 163.275C514.263 171.281 508.819 177.235 502.041 181.135C495.264 185.035 487.766 186.985 479.551 186.985C471.334 186.985 468.561 185.959 463.324 183.906C458.086 181.854 453.773 178.774 450.384 174.771C446.995 170.665 445.248 165.43 445.248 159.067C445.248 152.703 449.049 144.492 456.545 139.256C464.043 134.021 475.134 130.326 489.718 128.171L524.225 122.937V132.79H524.327V132.893Z" fill="#010101"></path><path d="M890.264 62.9928C885.639 57.9633 879.374 53.9603 871.676 50.8809C863.864 47.9043 854.42 46.3646 843.123 46.3646C831.826 46.3646 823.915 47.8016 816.624 50.6756C809.332 53.5497 803.381 57.1421 798.655 61.2478C794.03 65.4562 790.644 69.7672 788.485 74.1809C786.332 78.6972 785.199 82.3921 784.992 85.5742C784.992 87.5246 785.505 89.064 786.432 90.1931C787.358 91.3221 788.898 91.9383 790.851 91.9383H812.005C814.678 91.9383 816.731 90.7067 818.163 88.1401C820.116 83.5212 823.095 79.7237 827.101 76.9519C831.107 74.1809 836.345 72.7441 842.71 72.7441C851.855 72.7441 858.219 75.0022 862.018 79.4159C865.817 83.8289 867.67 90.1931 867.67 98.3018V104.358L831.007 110.209C814.364 112.877 801.015 118.317 790.951 126.323C780.887 134.33 775.855 145.21 775.855 158.758C775.855 172.307 778.014 174.565 782.426 181.34C786.845 188.114 792.697 193.349 800.195 197.353C807.693 201.355 816.11 203.306 825.355 203.306C834.599 203.306 839.631 202.279 845.276 200.226C850.928 198.173 855.653 195.607 859.552 192.425C863.458 189.243 866.644 185.753 868.903 182.058V196.326C868.903 198.276 869.516 199.918 870.642 201.253C871.776 202.587 873.422 203.306 875.368 203.306H897.042C898.789 203.306 900.328 202.587 901.561 201.253C902.794 199.918 903.407 198.276 903.407 196.326V102.1C903.407 94.5042 902.381 87.3195 900.221 80.545C898.069 73.7706 894.676 67.817 890.058 62.7875L890.264 62.9928ZM868.077 134.842C868.077 144.183 866.644 151.881 863.665 157.938C860.685 163.993 856.68 168.51 851.648 171.486C846.616 174.463 840.864 175.798 834.599 175.798C828.334 175.798 826.588 175.079 822.789 173.642C818.99 172.204 815.904 169.946 813.545 166.97C811.185 163.993 809.952 160.298 809.952 156.09C809.952 151.881 812.518 145.723 817.757 141.823C822.996 137.922 830.8 135.151 841.27 133.406L868.077 128.787V134.842Z" fill="#010101"></path><path d="M1070.6 114.724C1070.3 104.665 1068.86 95.4272 1066.29 87.1126C1063.82 78.7988 1060.23 71.614 1055.61 65.4553C1050.99 59.3994 1045.14 54.6778 1038.25 51.3932C1031.27 48.1086 1023.05 46.4664 1013.6 46.4664C1004.15 46.4664 994.602 48.5191 987.624 52.5222C980.639 56.5253 975.094 61.7601 970.775 67.9186V54.0619C970.775 52.1117 970.162 50.4693 969.029 49.135C967.903 47.8007 966.256 47.0822 964.31 47.0822H943.149C941.403 47.0822 939.863 47.8007 938.63 49.135C937.404 50.4693 936.784 52.1117 936.784 54.0619V248.775C936.784 250.725 937.404 252.368 938.63 253.702C939.863 255.036 941.403 255.755 943.149 255.755H965.95C967.902 255.755 969.442 255.036 970.675 253.702C971.908 252.368 972.421 250.725 972.421 248.775V182.776C976.733 188.934 982.279 193.964 989.057 197.762C995.835 201.559 1004.05 203.407 1013.7 203.407C1023.36 203.407 1031.37 201.662 1038.36 198.172C1045.33 194.682 1051.19 189.858 1055.92 183.803C1060.64 177.644 1064.24 170.562 1066.8 162.248C1069.27 154.036 1070.6 145.003 1070.81 135.355C1071.02 131.865 1071.11 128.375 1071.11 124.886C1071.11 121.396 1071.11 118.009 1070.81 114.724H1070.6ZM1034.14 133.712C1033.84 140.693 1032.71 147.056 1030.75 152.907C1028.91 158.758 1025.83 163.479 1021.52 166.969C1017.2 170.562 1011.24 172.306 1003.54 172.306C995.835 172.306 990.596 170.562 986.184 167.072C981.765 163.582 978.273 159.168 976.014 153.831C973.654 148.493 972.421 142.951 972.215 137.1C972.008 133.405 971.908 129.607 971.908 125.706C971.908 121.806 971.908 118.111 972.215 114.621C972.521 108.565 973.754 102.715 975.807 97.0691C977.867 91.3212 981.152 86.7023 985.671 83.0073C990.19 79.3117 996.141 77.4646 1003.44 77.4646C1010.73 77.4646 1017.1 79.3117 1021.41 82.8022C1025.72 86.3946 1028.81 91.116 1030.65 96.864C1032.5 102.715 1033.63 109.079 1034.04 116.058C1034.35 121.909 1034.35 127.657 1034.04 133.507V133.712H1034.14Z" fill="#010101"></path><path d="M158.735 4.7952V4.58997C158.324 3.25561 157.502 2.1265 156.27 1.408C154.935 0.58686 153.189 0.586895 151.649 0.484253H146.719C145.384 0.484253 143.843 0.79213 142.714 1.71592C141.892 2.43442 141.173 3.46086 140.66 4.48728C139.53 6.64279 138.605 8.90094 137.578 11.0564C137.168 11.8776 136.757 12.8013 136.346 13.7251C136.141 14.1357 135.935 14.5463 135.73 14.9568C135.73 15.1621 135.525 15.3674 135.422 15.6754C135.422 15.6754 135.114 16.0859 135.114 16.2912L133.368 19.8837C132.752 21.218 132.136 22.5524 131.519 23.8868C130.8 25.3238 130.184 26.7608 129.465 28.1978C128.747 29.7375 128.028 31.2771 127.308 32.8167C126.59 34.459 125.768 35.9986 125.049 37.6409C124.228 39.2832 123.406 41.0281 122.687 42.6704C121.865 44.4154 121.044 46.1603 120.222 47.9052L117.655 53.2426C116.833 55.0902 115.909 56.9378 115.087 58.7854C114.163 60.6329 113.342 62.4805 112.417 64.328C111.493 66.1756 110.672 68.0232 109.747 69.8707C108.823 71.7183 108.001 73.5661 107.077 75.4133C106.153 77.2611 105.331 79.1089 104.509 80.9561L101.942 86.3963C101.12 88.1408 100.298 89.9886 99.3746 91.7339C98.5528 93.4784 97.731 95.2237 96.91 96.8657C96.0882 98.5084 95.369 100.15 94.5472 101.896C93.8288 103.435 93.007 105.077 92.2878 106.617C91.5694 108.054 90.8502 109.593 90.1318 111.133C89.5153 112.57 88.7961 113.904 88.1803 115.341C87.5638 116.574 86.9479 117.908 86.3314 119.139C85.8183 120.268 85.3044 121.398 84.6886 122.527L83.2502 125.503C82.8397 126.324 82.4292 127.146 82.0179 128.069C81.71 128.787 81.4021 129.404 81.0942 130.122C81.0942 130.328 80.9908 130.43 80.8882 130.635C80.8882 130.84 79.8611 132.996 79.8611 132.996C79.8611 132.893 79.7585 132.791 79.7585 132.688C79.6559 132.38 79.4506 132.072 79.348 131.764C79.1427 131.251 78.8348 130.738 78.6288 130.225C78.3209 129.506 78.013 128.89 77.7051 128.172C77.2939 127.351 76.8833 126.529 76.4728 125.605C75.9589 124.58 75.5483 123.656 75.0345 122.629C74.5213 121.5 74.0074 120.371 73.3916 119.242C72.7751 118.01 72.1593 116.676 71.5427 115.444C70.9269 114.007 70.2078 112.673 69.5912 111.236C68.8728 109.799 68.1536 108.259 67.4348 106.72C66.716 105.18 65.8944 103.538 65.1755 101.998C64.3539 100.355 63.635 98.7135 62.8134 96.9682C61.9918 95.2237 61.1702 93.4784 60.3486 91.8365C59.527 90.0912 58.7054 88.2441 57.7811 86.4988C56.9595 84.651 56.0352 82.8039 55.2136 81.0586C54.2894 79.2115 53.4677 77.3637 52.6461 75.5158C51.7219 73.6687 50.9003 71.8209 49.976 69.9734C49.0516 68.1258 48.2301 66.2783 47.3058 64.4307C46.3815 62.5831 45.5599 60.7355 44.6356 58.888C43.814 57.0404 42.8897 55.1929 42.0681 53.3453C41.2465 51.4978 40.3222 49.7528 39.5007 48.0079C38.679 46.2629 37.8574 44.5179 37.0359 42.773C36.2142 41.1308 35.3926 39.3859 34.6738 37.7436C33.9549 36.1013 33.1332 34.5616 32.4144 32.9194C31.6955 31.3797 30.9766 29.84 30.2577 28.3004C29.5388 26.8634 28.9226 25.4264 28.2037 23.9894C27.5875 22.6551 26.9713 21.3208 26.3551 19.9864C25.8416 18.7547 25.2254 17.6256 24.6092 16.3939C24.6092 16.1886 24.4038 15.9833 24.3011 15.778C24.1984 15.5727 24.0957 15.3674 23.993 15.0595C23.7876 14.6489 23.5822 14.2384 23.3768 13.8278C22.966 13.0066 22.5552 12.0829 22.1444 11.1591C21.1174 8.90094 20.1931 6.74544 19.0634 4.58997C18.5499 3.56353 17.9337 2.63974 17.0094 1.8186C16.0851 0.997458 14.8527 0.689488 13.7231 0.689488H7.56109C6.63681 0.689488 5.71252 0.689502 4.89094 0.894787C3.04233 1.408 1.50184 2.84502 0.88565 4.69258C0.577552 5.51373 0.474854 6.4375 0.474854 7.36127V197.764C0.474854 199.714 1.09103 201.253 2.22072 202.382C3.35042 203.512 4.89094 204.128 6.63681 204.128H11.4636C13.2096 204.128 14.6474 203.512 15.7771 202.382C16.9068 201.253 17.4202 199.714 17.4202 197.764V40.2069C17.4202 40.2069 17.523 40.5149 17.6257 40.7202C17.8311 41.1308 18.0364 41.644 18.2418 42.0546C18.5499 42.7731 18.9608 43.4916 19.2688 44.2101C19.7823 45.2365 20.1931 46.1603 20.6039 47.1868C21.1174 48.4184 21.7336 49.6501 22.2471 50.7792C22.8633 52.2162 23.5822 53.5505 24.1984 54.9876C24.9173 56.5272 25.6362 58.1695 26.4578 59.7091C27.2794 61.454 28.101 63.1989 28.9226 64.9439C29.7441 66.7915 30.6685 68.639 31.4901 70.4866C32.4144 72.4371 33.3386 74.3868 34.2629 76.3372C35.1873 78.3902 36.2142 80.3406 37.1386 82.3929C38.1656 84.4459 39.0898 86.6014 40.0141 88.6544C41.0411 90.81 41.9654 92.863 42.9924 94.916C44.0194 97.0708 44.9437 99.1238 45.9707 101.177C46.9977 103.23 47.9219 105.385 48.8463 107.438C49.7706 109.491 50.6949 111.441 51.7219 113.494C52.6461 115.444 53.5704 117.394 54.4947 119.345C55.3164 121.192 56.2406 123.04 57.0622 124.887C57.8838 126.632 58.7054 128.377 59.527 130.019C60.2459 131.559 60.9648 133.201 61.6837 134.741C62.2999 136.178 63.0188 137.512 63.635 138.949C64.1485 140.181 64.7647 141.31 65.2781 142.542C65.689 143.465 66.2025 144.492 66.6133 145.416C66.9214 146.135 67.2295 146.853 67.6402 147.571C68.4615 149.316 69.1807 151.061 70.413 152.498C72.0566 154.448 74.316 155.167 76.7807 155.167H84.5859C86.2288 154.859 87.769 154.141 88.8987 152.909C89.8232 151.883 90.4397 150.651 91.0555 149.419C91.7746 148.084 92.3912 146.75 93.007 145.313C94.8558 141.412 96.6013 137.512 98.4502 133.509C98.9634 132.483 99.3746 131.559 99.7852 130.533C100.607 128.685 101.531 126.838 102.352 125.093C103.277 123.142 104.201 121.192 105.126 119.139C106.153 117.086 107.077 114.931 108.104 112.878C109.131 110.722 110.158 108.567 111.185 106.412C112.212 104.154 113.239 101.998 114.266 99.74C115.293 97.4819 116.32 95.2237 117.45 92.9656C118.477 90.7074 119.503 88.4493 120.53 86.2937L123.611 79.7244C124.639 77.5688 125.563 75.5158 126.59 73.361C127.514 71.308 128.541 69.3576 129.465 67.3046C130.39 65.3544 131.211 63.5069 132.136 61.5567C132.957 59.8118 133.779 58.0668 134.601 56.3219C135.319 54.7823 136.038 53.2426 136.757 51.703C137.373 50.3686 137.99 49.0343 138.605 47.6999C139.119 46.5709 139.632 45.5444 140.146 44.4154C140.557 43.5942 140.865 42.773 141.276 41.9519C141.481 41.4387 141.789 40.9255 141.995 40.515C141.995 40.515 142.097 40.207 142.2 40.1044V197.661C142.2 199.714 142.714 201.253 143.843 202.382C144.973 203.512 146.308 204.128 148.157 204.128H152.984C154.935 204.128 156.475 203.512 157.502 202.382C158.529 201.253 159.145 199.714 159.145 197.764V8.90094C159.145 7.46392 159.145 6.12955 158.837 4.7952H158.735Z" fill="#010101"></path><path d="M748.629 2.43359C747.396 1.09924 745.749 0.380737 743.804 0.380737H722.956C720.49 0.380737 718.537 1.09928 717.304 2.53627C716.071 3.97327 715.251 5.10233 714.945 5.92346L662.771 110.619L611.113 5.92346C610.805 5.10233 609.983 4.07592 608.751 2.53627C607.519 1.20192 605.773 0.380737 603.514 0.380737H581.638C579.79 0.380737 578.352 1.09924 577.119 2.43359C575.887 3.76795 575.271 5.51292 575.271 7.66843V196.942C575.271 198.892 575.887 200.534 577.119 201.868C578.352 203.203 579.995 203.921 581.947 203.921H604.437C606.184 203.921 607.724 203.203 608.956 201.868C610.189 200.534 610.805 198.892 610.805 196.942V70.9989L648.29 148.597C649.215 150.342 650.344 151.881 651.679 153.113C653.014 154.345 654.966 154.961 657.431 154.961H668.42C670.782 154.961 672.63 154.345 674.068 153.113C675.506 151.881 676.635 150.342 677.56 148.597L715.044 70.9989V196.942C715.044 198.892 715.665 200.534 716.791 201.868C717.924 203.203 719.563 203.921 721.516 203.921H744.003C745.956 203.921 747.602 203.203 748.836 201.868C750.069 200.534 750.682 198.892 750.682 196.942V7.66843C750.682 5.51292 750.069 3.76795 748.836 2.43359H748.629Z" fill="#010101"></path><path d="M1207.73 100.865C1207.28 100.865 1206.88 100.696 1206.54 100.358C1206.21 100.02 1206.04 99.6257 1206.04 99.1749C1206.04 98.8932 1206.09 98.5833 1206.21 98.2452L1227.59 43.3903C1227.82 42.8268 1228.1 42.4042 1228.44 42.1224C1228.83 41.8407 1229.36 41.6998 1230.04 41.6998H1232.91C1233.59 41.6998 1234.1 41.8407 1234.44 42.1224C1234.83 42.4042 1235.14 42.8268 1235.37 43.3903L1256.75 98.2452C1256.86 98.5833 1256.92 98.8932 1256.92 99.1749C1256.92 99.6257 1256.75 100.02 1256.41 100.358C1256.07 100.696 1255.68 100.865 1255.23 100.865H1253.54C1252.97 100.865 1252.55 100.724 1252.27 100.443C1251.99 100.105 1251.79 99.8229 1251.68 99.5975L1246.44 86.074H1216.52L1211.28 99.5975C1211.22 99.8229 1211.02 100.105 1210.69 100.443C1210.4 100.724 1209.98 100.865 1209.42 100.865H1207.73ZM1218.55 81.0026H1244.41L1231.48 47.7009L1218.55 81.0026ZM1268.23 100.865C1267.66 100.865 1267.21 100.696 1266.87 100.358C1266.54 100.02 1266.37 99.5693 1266.37 99.0059V58.7733C1266.37 58.2098 1266.54 57.759 1266.87 57.4209C1267.21 57.0829 1267.66 56.9138 1268.23 56.9138H1269.66C1270.23 56.9138 1270.68 57.0829 1271.02 57.4209C1271.35 57.759 1271.52 58.2098 1271.52 58.7733V62.7458C1273.04 60.7737 1274.88 59.1677 1277.02 57.9281C1279.21 56.6884 1282.12 56.0686 1285.72 56.0686C1289.55 56.0686 1292.74 56.9138 1295.27 58.6043C1297.87 60.2384 1299.78 62.4923 1301.02 65.366C1302.32 68.1834 1302.96 71.3953 1302.96 75.0016V99.0059C1302.96 99.5693 1302.8 100.02 1302.46 100.358C1302.12 100.696 1301.67 100.865 1301.11 100.865H1299.67C1299.1 100.865 1298.65 100.696 1298.32 100.358C1297.98 100.02 1297.81 99.5693 1297.81 99.0059V75.4242C1297.81 70.9163 1296.71 67.3946 1294.51 64.8589C1292.31 62.2669 1289.1 60.9709 1284.88 60.9709C1280.88 60.9709 1277.64 62.2669 1275.16 64.8589C1272.73 67.3946 1271.52 70.9163 1271.52 75.4242V99.0059C1271.52 99.5693 1271.35 100.02 1271.02 100.358C1270.68 100.696 1270.23 100.865 1269.66 100.865H1268.23ZM1342.05 100.865C1341.49 100.865 1341.04 100.696 1340.7 100.358C1340.36 100.02 1340.19 99.5693 1340.19 99.0059V43.5593C1340.19 42.9958 1340.36 42.545 1340.7 42.2069C1341.04 41.8689 1341.49 41.6998 1342.05 41.6998H1343.66C1344.22 41.6998 1344.67 41.8689 1345.01 42.2069C1345.35 42.545 1345.52 42.9958 1345.52 43.5593V99.0059C1345.52 99.5693 1345.35 100.02 1345.01 100.358C1344.67 100.696 1344.22 100.865 1343.66 100.865H1342.05ZM1362.7 100.865C1362.14 100.865 1361.69 100.696 1361.35 100.358C1361.01 100.02 1360.84 99.5693 1360.84 99.0059V58.7733C1360.84 58.2098 1361.01 57.759 1361.35 57.4209C1361.69 57.0829 1362.14 56.9138 1362.7 56.9138H1364.14C1364.7 56.9138 1365.15 57.0829 1365.49 57.4209C1365.83 57.759 1366 58.2098 1366 58.7733V62.7458C1367.52 60.7737 1369.35 59.1677 1371.49 57.9281C1373.69 56.6884 1376.59 56.0686 1380.2 56.0686C1384.03 56.0686 1387.21 56.9138 1389.75 58.6043C1392.34 60.2384 1394.26 62.4923 1395.5 65.366C1396.79 68.1834 1397.44 71.3953 1397.44 75.0016V99.0059C1397.44 99.5693 1397.27 100.02 1396.93 100.358C1396.6 100.696 1396.15 100.865 1395.58 100.865H1394.15C1393.58 100.865 1393.13 100.696 1392.79 100.358C1392.46 100.02 1392.29 99.5693 1392.29 99.0059V75.4242C1392.29 70.9163 1391.19 67.3946 1388.99 64.8589C1386.79 62.2669 1383.58 60.9709 1379.35 60.9709C1375.35 60.9709 1372.11 62.2669 1369.63 64.8589C1367.21 67.3946 1366 70.9163 1366 75.4242V99.0059C1366 99.5693 1365.83 100.02 1365.49 100.358C1365.15 100.696 1364.7 100.865 1364.14 100.865H1362.7ZM1427.89 101.711C1423.94 101.711 1420.59 100.95 1417.83 99.4285C1415.07 97.8507 1412.96 95.5968 1411.49 92.6667C1410.08 89.7366 1409.32 86.2712 1409.21 82.2705C1409.15 81.4252 1409.13 80.2983 1409.13 78.8896C1409.13 77.4809 1409.15 76.3539 1409.21 75.5087C1409.32 71.4516 1410.08 67.9862 1411.49 65.1125C1412.96 62.1824 1415.07 59.9566 1417.83 58.4352C1420.59 56.8575 1423.94 56.0686 1427.89 56.0686C1430.88 56.0686 1433.44 56.4912 1435.58 57.3364C1437.78 58.1253 1439.58 59.1959 1440.99 60.5483C1442.4 61.8443 1443.47 63.2811 1444.2 64.8589C1444.93 66.4366 1445.33 67.9862 1445.39 69.5076C1445.44 70.0711 1445.27 70.5219 1444.88 70.86C1444.48 71.1981 1444.03 71.3671 1443.53 71.3671H1442.34C1441.78 71.3671 1441.36 71.2544 1441.07 71.029C1440.85 70.7473 1440.6 70.2683 1440.31 69.5921C1439.13 66.3803 1437.5 64.1545 1435.41 62.9149C1433.38 61.6189 1430.88 60.9709 1427.89 60.9709C1424.06 60.9709 1420.87 62.1542 1418.34 64.5208C1415.86 66.8311 1414.53 70.6346 1414.37 75.9313C1414.25 77.9035 1414.25 79.8757 1414.37 81.8479C1414.53 87.1446 1415.86 90.9763 1418.34 93.3429C1420.87 95.6532 1424.06 96.8083 1427.89 96.8083C1430.88 96.8083 1433.38 96.1885 1435.41 94.9488C1437.5 93.6528 1439.13 91.3989 1440.31 88.187C1440.6 87.5108 1440.85 87.0601 1441.07 86.8347C1441.36 86.5529 1441.78 86.4121 1442.34 86.4121H1443.53C1444.03 86.4121 1444.48 86.5811 1444.88 86.9192C1445.27 87.2573 1445.44 87.7081 1445.39 88.2715C1445.33 89.5112 1445.08 90.7509 1444.62 91.9905C1444.17 93.2302 1443.47 94.4417 1442.51 95.625C1441.61 96.8083 1440.48 97.8507 1439.13 98.7523C1437.78 99.6539 1436.14 100.358 1434.23 100.865C1432.37 101.429 1430.26 101.711 1427.89 101.711ZM1473.83 101.711C1469.77 101.711 1466.36 100.865 1463.6 99.1749C1460.9 97.4845 1458.81 95.1742 1457.35 92.2441C1455.94 89.314 1455.18 86.0458 1455.06 82.4395C1455.01 81.5943 1454.98 80.411 1454.98 78.8896C1454.98 77.3682 1455.01 76.1849 1455.06 75.3397C1455.18 71.677 1455.94 68.4088 1457.35 65.5351C1458.81 62.605 1460.9 60.2947 1463.6 58.6043C1466.36 56.9138 1469.77 56.0686 1473.83 56.0686C1477.89 56.0686 1481.27 56.9138 1483.97 58.6043C1486.73 60.2947 1488.82 62.605 1490.23 65.5351C1491.69 68.4088 1492.48 71.677 1492.59 75.3397C1492.65 76.1849 1492.68 77.3682 1492.68 78.8896C1492.68 80.411 1492.65 81.5943 1492.59 82.4395C1492.48 86.0458 1491.69 89.314 1490.23 92.2441C1488.82 95.1742 1486.73 97.4845 1483.97 99.1749C1481.27 100.865 1477.89 101.711 1473.83 101.711ZM1473.83 96.8083C1477.77 96.8083 1480.98 95.5405 1483.46 93.0048C1485.94 90.4691 1487.27 86.8065 1487.44 82.0169C1487.49 81.1717 1487.52 80.1292 1487.52 78.8896C1487.52 77.6499 1487.49 76.6075 1487.44 75.7623C1487.27 70.9163 1485.94 67.2537 1483.46 64.7744C1480.98 62.2387 1477.77 60.9709 1473.83 60.9709C1469.88 60.9709 1466.67 62.2387 1464.19 64.7744C1461.71 67.2537 1460.39 70.9163 1460.22 75.7623C1460.16 76.6075 1460.14 77.6499 1460.14 78.8896C1460.14 80.1292 1460.16 81.1717 1460.22 82.0169C1460.39 86.8065 1461.71 90.4691 1464.19 93.0048C1466.67 95.5405 1469.88 96.8083 1473.83 96.8083ZM1520.65 101.711C1517.39 101.711 1514.6 101.119 1512.29 99.9356C1510.03 98.7523 1508.2 97.1746 1506.79 95.2024C1505.38 93.2302 1504.34 91.0326 1503.66 88.6096C1503.04 86.1867 1502.68 83.7355 1502.57 81.2562C1502.51 80.411 1502.48 79.6221 1502.48 78.8896C1502.48 78.1571 1502.51 77.3682 1502.57 76.523C1502.68 74.0436 1503.04 71.5925 1503.66 69.1695C1504.34 66.7466 1505.38 64.549 1506.79 62.5768C1508.2 60.6046 1510.03 59.0269 1512.29 57.8436C1514.6 56.6602 1517.39 56.0686 1520.65 56.0686C1524.15 56.0686 1527.02 56.7166 1529.27 58.0126C1531.59 59.3086 1533.44 60.8864 1534.85 62.7458V42.7141C1534.85 42.1506 1535.02 41.6998 1535.36 41.3617C1535.7 41.0236 1536.15 40.8546 1536.71 40.8546H1538.15C1538.71 40.8546 1539.16 41.0236 1539.5 41.3617C1539.84 41.6998 1540.01 42.1506 1540.01 42.7141V99.0059C1540.01 99.5693 1539.84 100.02 1539.5 100.358C1539.16 100.696 1538.71 100.865 1538.15 100.865H1536.71C1536.15 100.865 1535.7 100.696 1535.36 100.358C1535.02 100.02 1534.85 99.5693 1534.85 99.0059V95.0333C1533.44 96.9492 1531.59 98.5551 1529.27 99.8511C1527.02 101.091 1524.15 101.711 1520.65 101.711ZM1521.16 96.8083C1524.37 96.8083 1526.96 96.0476 1528.94 94.5262C1530.91 93.0048 1532.37 91.1171 1533.33 88.8632C1534.29 86.5529 1534.8 84.2427 1534.85 81.9324C1534.91 81.0872 1534.94 79.9884 1534.94 78.636C1534.94 77.2837 1534.91 76.1849 1534.85 75.3397C1534.8 73.0857 1534.26 70.86 1533.25 68.6624C1532.29 66.4648 1530.82 64.6335 1528.85 63.1685C1526.88 61.7034 1524.32 60.9709 1521.16 60.9709C1517.89 60.9709 1515.27 61.7034 1513.3 63.1685C1511.38 64.6335 1510 66.5493 1509.16 68.916C1508.31 71.2826 1507.83 73.8183 1507.72 76.523C1507.67 78.1007 1507.67 79.6785 1507.72 81.2562C1507.83 83.9609 1508.31 86.4966 1509.16 88.8632C1510 91.2298 1511.38 93.1457 1513.3 94.6107C1515.27 96.0758 1517.89 96.8083 1521.16 96.8083ZM1570.65 101.711C1565.18 101.711 1560.84 99.9356 1557.63 96.3857C1554.42 92.7794 1552.59 88.0743 1552.13 82.2705C1552.08 81.4252 1552.05 80.2983 1552.05 78.8896C1552.05 77.4809 1552.08 76.3539 1552.13 75.5087C1552.42 71.677 1553.32 68.2961 1554.84 65.366C1556.36 62.4359 1558.45 60.1538 1561.09 58.5197C1563.8 56.8856 1566.98 56.0686 1570.65 56.0686C1574.59 56.0686 1577.94 56.942 1580.7 58.6888C1583.46 60.4356 1585.58 62.9431 1587.04 66.2113C1588.56 69.4794 1589.32 73.3675 1589.32 77.8753V79.1432C1589.32 79.7066 1589.13 80.1574 1588.73 80.4955C1588.39 80.8336 1587.94 81.0026 1587.38 81.0026H1557.29C1557.29 81.0026 1557.29 81.1153 1557.29 81.3407C1557.29 81.5661 1557.29 81.7352 1557.29 81.8479C1557.4 84.3835 1558 86.8065 1559.07 89.1168C1560.14 91.3707 1561.66 93.2302 1563.63 94.6952C1565.6 96.1039 1567.94 96.8083 1570.65 96.8083C1573.07 96.8083 1575.07 96.442 1576.65 95.7095C1578.28 94.977 1579.58 94.1881 1580.53 93.3429C1581.49 92.4413 1582.11 91.7651 1582.39 91.3143C1582.9 90.5818 1583.3 90.1592 1583.58 90.0465C1583.86 89.8775 1584.31 89.7929 1584.93 89.7929H1586.28C1586.79 89.7929 1587.21 89.962 1587.55 90.3001C1587.94 90.5818 1588.11 90.9763 1588.06 91.4834C1588 92.2723 1587.55 93.2584 1586.7 94.4417C1585.92 95.5686 1584.76 96.6956 1583.24 97.8226C1581.77 98.9495 1579.97 99.8793 1577.83 100.612C1575.69 101.344 1573.29 101.711 1570.65 101.711ZM1557.29 76.2694H1584.17V75.9313C1584.17 73.1139 1583.63 70.5782 1582.56 68.3243C1581.49 66.0704 1579.94 64.2954 1577.91 62.9994C1575.89 61.6471 1573.46 60.9709 1570.65 60.9709C1567.83 60.9709 1565.4 61.6471 1563.38 62.9994C1561.4 64.2954 1559.88 66.0704 1558.81 68.3243C1557.8 70.5782 1557.29 73.1139 1557.29 75.9313V76.2694ZM1231.99 199.711C1226.86 199.711 1222.66 198.724 1219.39 196.752C1216.18 194.724 1213.78 191.991 1212.21 188.554C1210.63 185.116 1209.76 181.2 1209.59 176.805C1209.53 174.495 1209.5 172.015 1209.5 169.367C1209.5 166.719 1209.53 164.183 1209.59 161.76C1209.76 157.365 1210.63 153.449 1212.21 150.012C1213.78 146.518 1216.18 143.785 1219.39 141.813C1222.66 139.841 1226.86 138.855 1231.99 138.855C1235.99 138.855 1239.39 139.418 1242.21 140.545C1245.03 141.672 1247.31 143.165 1249.06 145.025C1250.86 146.828 1252.19 148.8 1253.03 150.941C1253.93 153.026 1254.44 155.083 1254.55 157.111C1254.61 157.619 1254.44 158.041 1254.05 158.379C1253.71 158.661 1253.28 158.802 1252.78 158.802H1251.09C1250.64 158.802 1250.24 158.689 1249.9 158.464C1249.57 158.182 1249.34 157.703 1249.23 157.027C1248.16 152.012 1246.13 148.575 1243.14 146.715C1240.21 144.856 1236.49 143.926 1231.99 143.926C1226.86 143.926 1222.77 145.391 1219.73 148.321C1216.74 151.195 1215.14 155.815 1214.91 162.183C1214.74 166.803 1214.74 171.537 1214.91 176.382C1215.14 182.75 1216.74 187.399 1219.73 190.329C1222.77 193.202 1226.86 194.639 1231.99 194.639C1236.49 194.639 1240.21 193.71 1243.14 191.85C1246.13 189.991 1248.16 186.553 1249.23 181.538C1249.34 180.862 1249.57 180.411 1249.9 180.186C1250.24 179.904 1250.64 179.763 1251.09 179.763H1252.78C1253.28 179.763 1253.71 179.932 1254.05 180.27C1254.44 180.552 1254.61 180.947 1254.55 181.454C1254.44 183.482 1253.93 185.567 1253.03 187.708C1252.19 189.793 1250.86 191.765 1249.06 193.625C1247.31 195.428 1245.03 196.893 1242.21 198.02C1239.39 199.147 1235.99 199.711 1231.99 199.711ZM1283.18 199.711C1279.13 199.711 1275.72 198.865 1272.96 197.175C1270.25 195.484 1268.17 193.174 1266.7 190.244C1265.29 187.314 1264.53 184.046 1264.42 180.44C1264.36 179.594 1264.34 178.411 1264.34 176.89C1264.34 175.368 1264.36 174.185 1264.42 173.34C1264.53 169.677 1265.29 166.409 1266.7 163.535C1268.17 160.605 1270.25 158.295 1272.96 156.604C1275.72 154.914 1279.13 154.069 1283.18 154.069C1287.24 154.069 1290.62 154.914 1293.33 156.604C1296.09 158.295 1298.17 160.605 1299.58 163.535C1301.05 166.409 1301.84 169.677 1301.95 173.34C1302 174.185 1302.03 175.368 1302.03 176.89C1302.03 178.411 1302 179.594 1301.95 180.44C1301.84 184.046 1301.05 187.314 1299.58 190.244C1298.17 193.174 1296.09 195.484 1293.33 197.175C1290.62 198.865 1287.24 199.711 1283.18 199.711ZM1283.18 194.808C1287.13 194.808 1290.34 193.54 1292.82 191.005C1295.3 188.469 1296.62 184.806 1296.79 180.017C1296.85 179.172 1296.88 178.129 1296.88 176.89C1296.88 175.65 1296.85 174.607 1296.79 173.762C1296.62 168.916 1295.3 165.254 1292.82 162.774C1290.34 160.239 1287.13 158.971 1283.18 158.971C1279.24 158.971 1276.03 160.239 1273.55 162.774C1271.07 165.254 1269.75 168.916 1269.58 173.762C1269.52 174.607 1269.49 175.65 1269.49 176.89C1269.49 178.129 1269.52 179.172 1269.58 180.017C1269.75 184.806 1271.07 188.469 1273.55 191.005C1276.03 193.54 1279.24 194.808 1283.18 194.808ZM1315.98 198.865C1315.42 198.865 1314.96 198.696 1314.63 198.358C1314.29 198.02 1314.12 197.569 1314.12 197.006V156.773C1314.12 156.21 1314.29 155.759 1314.63 155.421C1314.96 155.083 1315.42 154.914 1315.98 154.914H1317.42C1317.98 154.914 1318.43 155.083 1318.77 155.421C1319.11 155.759 1319.28 156.21 1319.28 156.773V159.732C1320.68 157.928 1322.35 156.548 1324.26 155.59C1326.23 154.576 1328.6 154.069 1331.36 154.069C1337.67 154.069 1342.18 156.717 1344.89 162.014C1346.18 159.591 1348.07 157.675 1350.55 156.266C1353.08 154.801 1355.99 154.069 1359.25 154.069C1362.24 154.069 1364.92 154.773 1367.28 156.182C1369.71 157.534 1371.59 159.563 1372.95 162.267C1374.36 164.972 1375.06 168.353 1375.06 172.41V197.006C1375.06 197.569 1374.89 198.02 1374.55 198.358C1374.21 198.696 1373.76 198.865 1373.2 198.865H1371.76C1371.2 198.865 1370.75 198.696 1370.41 198.358C1370.07 198.02 1369.9 197.569 1369.9 197.006V173.255C1369.9 169.536 1369.37 166.662 1368.3 164.634C1367.23 162.549 1365.82 161.084 1364.07 160.239C1362.33 159.393 1360.44 158.971 1358.41 158.971C1356.72 158.971 1355 159.393 1353.25 160.239C1351.51 161.084 1350.04 162.549 1348.86 164.634C1347.73 166.662 1347.17 169.536 1347.17 173.255V197.006C1347.17 197.569 1347 198.02 1346.66 198.358C1346.32 198.696 1345.87 198.865 1345.31 198.865H1343.87C1343.31 198.865 1342.86 198.696 1342.52 198.358C1342.18 198.02 1342.01 197.569 1342.01 197.006V173.255C1342.01 169.536 1341.45 166.662 1340.32 164.634C1339.19 162.549 1337.76 161.084 1336.01 160.239C1334.26 159.393 1332.43 158.971 1330.52 158.971C1328.83 158.971 1327.11 159.393 1325.36 160.239C1323.61 161.084 1322.15 162.549 1320.97 164.634C1319.84 166.662 1319.28 169.508 1319.28 173.171V197.006C1319.28 197.569 1319.11 198.02 1318.77 198.358C1318.43 198.696 1317.98 198.865 1317.42 198.865H1315.98ZM1390.81 214.925C1390.24 214.925 1389.79 214.756 1389.46 214.417C1389.12 214.079 1388.95 213.629 1388.95 213.065V156.773C1388.95 156.21 1389.12 155.759 1389.46 155.421C1389.79 155.083 1390.24 154.914 1390.81 154.914H1392.24C1392.81 154.914 1393.26 155.083 1393.6 155.421C1393.94 155.759 1394.1 156.21 1394.1 156.773V160.746C1395.51 158.83 1397.34 157.252 1399.6 156.013C1401.91 154.717 1404.81 154.069 1408.3 154.069C1411.63 154.069 1414.42 154.66 1416.67 155.844C1418.93 156.971 1420.76 158.492 1422.17 160.408C1423.57 162.324 1424.62 164.465 1425.29 166.831C1425.97 169.198 1426.34 171.621 1426.39 174.1C1426.45 174.946 1426.48 175.875 1426.48 176.89C1426.48 177.904 1426.45 178.834 1426.39 179.679C1426.34 182.158 1425.97 184.581 1425.29 186.948C1424.62 189.314 1423.57 191.456 1422.17 193.371C1420.76 195.287 1418.93 196.837 1416.67 198.02C1414.42 199.147 1411.63 199.711 1408.3 199.711C1404.81 199.711 1401.91 199.063 1399.6 197.767C1397.34 196.471 1395.51 194.893 1394.1 193.033V213.065C1394.1 213.629 1393.94 214.079 1393.6 214.417C1393.26 214.756 1392.81 214.925 1392.24 214.925H1390.81ZM1407.8 194.808C1411.12 194.808 1413.74 194.076 1415.66 192.611C1417.57 191.146 1418.95 189.23 1419.8 186.863C1420.64 184.497 1421.12 181.961 1421.24 179.256C1421.29 177.678 1421.29 176.101 1421.24 174.523C1421.12 171.818 1420.64 169.283 1419.8 166.916C1418.95 164.549 1417.57 162.634 1415.66 161.168C1413.74 159.703 1411.12 158.971 1407.8 158.971C1404.58 158.971 1401.99 159.732 1400.02 161.253C1398.05 162.774 1396.58 164.69 1395.63 167C1394.72 169.254 1394.22 171.537 1394.1 173.847C1394.05 174.692 1394.02 175.791 1394.02 177.143C1394.02 178.496 1394.05 179.594 1394.1 180.44C1394.16 182.693 1394.67 184.919 1395.63 187.117C1396.64 189.314 1398.13 191.146 1400.11 192.611C1402.13 194.076 1404.7 194.808 1407.8 194.808ZM1450.35 199.711C1447.64 199.711 1445.14 199.147 1442.83 198.02C1440.57 196.893 1438.74 195.4 1437.33 193.54C1435.92 191.625 1435.22 189.483 1435.22 187.117C1435.22 183.285 1436.77 180.214 1439.87 177.904C1442.97 175.594 1447 174.1 1451.95 173.424L1465.31 171.565V168.606C1465.31 165.62 1464.38 163.282 1462.52 161.591C1460.72 159.844 1457.81 158.971 1453.81 158.971C1450.88 158.971 1448.52 159.563 1446.71 160.746C1444.91 161.873 1443.67 163.366 1442.99 165.226C1442.71 166.071 1442.18 166.493 1441.39 166.493H1440.04C1439.36 166.493 1438.88 166.324 1438.6 165.986C1438.32 165.592 1438.18 165.141 1438.18 164.634C1438.18 163.845 1438.46 162.859 1439.02 161.676C1439.64 160.492 1440.57 159.337 1441.81 158.21C1443.05 157.027 1444.66 156.041 1446.63 155.252C1448.6 154.463 1451 154.069 1453.81 154.069C1457.14 154.069 1459.87 154.519 1462.01 155.421C1464.21 156.323 1465.9 157.506 1467.08 158.971C1468.32 160.38 1469.2 161.957 1469.7 163.704C1470.21 165.451 1470.46 167.17 1470.46 168.86V197.006C1470.46 197.569 1470.3 198.02 1469.96 198.358C1469.62 198.696 1469.17 198.865 1468.61 198.865H1467.17C1466.6 198.865 1466.15 198.696 1465.82 198.358C1465.48 198.02 1465.31 197.569 1465.31 197.006V193.033C1464.63 194.048 1463.67 195.062 1462.43 196.076C1461.2 197.09 1459.59 197.964 1457.62 198.696C1455.7 199.372 1453.28 199.711 1450.35 199.711ZM1451.19 194.808C1453.79 194.808 1456.15 194.245 1458.29 193.118C1460.43 191.991 1462.13 190.272 1463.36 187.962C1464.66 185.595 1465.31 182.637 1465.31 179.087V176.213L1454.41 177.735C1449.78 178.355 1446.29 179.425 1443.92 180.947C1441.56 182.468 1440.37 184.384 1440.37 186.694C1440.37 188.554 1440.91 190.075 1441.98 191.258C1443.05 192.442 1444.4 193.343 1446.04 193.963C1447.73 194.527 1449.45 194.808 1451.19 194.808ZM1486.23 198.865C1485.67 198.865 1485.22 198.696 1484.88 198.358C1484.54 198.02 1484.37 197.569 1484.37 197.006V156.773C1484.37 156.21 1484.54 155.759 1484.88 155.421C1485.22 155.083 1485.67 154.914 1486.23 154.914H1487.67C1488.23 154.914 1488.68 155.083 1489.02 155.421C1489.36 155.759 1489.53 156.21 1489.53 156.773V160.746C1491.05 158.774 1492.88 157.168 1495.02 155.928C1497.22 154.688 1500.12 154.069 1503.73 154.069C1507.56 154.069 1510.74 154.914 1513.28 156.604C1515.87 158.238 1517.78 160.492 1519.02 163.366C1520.32 166.183 1520.97 169.395 1520.97 173.002V197.006C1520.97 197.569 1520.8 198.02 1520.46 198.358C1520.12 198.696 1519.67 198.865 1519.11 198.865H1517.67C1517.11 198.865 1516.66 198.696 1516.32 198.358C1515.98 198.02 1515.81 197.569 1515.81 197.006V173.424C1515.81 168.916 1514.71 165.395 1512.52 162.859C1510.32 160.267 1507.11 158.971 1502.88 158.971C1498.88 158.971 1495.64 160.267 1493.16 162.859C1490.74 165.395 1489.53 168.916 1489.53 173.424V197.006C1489.53 197.569 1489.36 198.02 1489.02 198.358C1488.68 198.696 1488.23 198.865 1487.67 198.865H1486.23ZM1540.96 214.925C1540.51 214.925 1540.12 214.756 1539.78 214.417C1539.44 214.079 1539.27 213.685 1539.27 213.234C1539.27 213.009 1539.3 212.755 1539.36 212.473C1539.47 212.248 1539.61 211.938 1539.78 211.544L1546.29 196.33L1530.15 158.295C1529.81 157.449 1529.64 156.886 1529.64 156.604C1529.64 156.153 1529.81 155.759 1530.15 155.421C1530.48 155.083 1530.88 154.914 1531.33 154.914H1533.1C1533.67 154.914 1534.09 155.055 1534.37 155.336C1534.71 155.562 1534.93 155.844 1535.05 156.182L1549.25 189.652L1563.79 156.182C1563.95 155.844 1564.18 155.562 1564.46 155.336C1564.74 155.055 1565.17 154.914 1565.73 154.914H1567.42C1567.87 154.914 1568.26 155.083 1568.6 155.421C1568.94 155.759 1569.11 156.153 1569.11 156.604C1569.11 156.886 1568.94 157.449 1568.6 158.295L1544.6 213.657C1544.43 213.995 1544.2 214.277 1543.92 214.502C1543.64 214.784 1543.22 214.925 1542.65 214.925H1540.96Z" fill="#010101"></path></svg>