<svg width="140" height="32" viewBox="0 0 140 32" fill="none" xmlns="http://www.w3.org/2000/svg">
<g clip-path="url(#clip0_22_5123)">
<g clip-path="url(#clip1_22_5123)">
<path d="M0.775783 3.95439C0.531084 2.66916 0.304377 1.49553 0.0380859 0.109497H2.35194C5.50424 0.174299 8.67454 -0.0345064 11.7981 0.354303C18.3834 1.19672 23.3133 7.01086 23.3385 13.6422C23.3709 19.4024 23.3169 25.1337 23.3673 30.8794C23.3673 32.0099 23.0866 32.4671 21.9279 32.3195C21.1537 32.2738 20.3775 32.2738 19.6033 32.3195C19.5745 31.7183 19.5277 31.2178 19.5277 30.7174C19.5277 25.1877 19.5457 19.658 19.5277 14.1282C19.4701 8.16649 15.2203 3.95439 9.2575 3.95439H0.775783Z" fill="#133157"/>
<path d="M16.9511 32.2475H13.1762V30.6598V14.4594C13.1762 11.6838 11.816 10.3121 9.04874 10.2833C7.06236 10.2833 5.09037 10.2509 3.08599 10.3013C2.23314 10.3229 1.81931 10.0529 1.73294 9.17092C1.65738 8.3609 1.44506 7.56168 1.26514 6.60766C1.64159 6.54335 2.02115 6.49889 2.40227 6.47446C4.78089 6.47446 7.15592 6.44926 9.53454 6.47446C13.806 6.51766 16.9835 9.71453 16.9943 13.9698C17.0123 19.6292 16.9943 25.2885 16.9943 30.9478C16.9943 31.3403 16.9511 31.7219 16.9511 32.2475Z" fill="#133157"/>
<path d="M36.4766 -0.0057373C36.3546 1.0853 36.1635 2.1675 35.9045 3.23434C35.7936 3.42877 35.6377 3.59371 35.4498 3.71525C35.2619 3.8368 35.0476 3.91139 34.8249 3.93276C32.5398 4.00116 30.2512 3.90756 27.9661 3.99036C26.5591 4.04076 25.1629 4.33237 23.7558 4.46917C23.4001 4.52539 23.0363 4.44152 22.7411 4.23516C21.989 3.45395 21.3412 2.60793 20.5496 1.6719C25.6667 -0.95256 31.0501 0.566676 36.4766 -0.0057373ZM24.4252 6.83443C28.0633 6.11441 31.6222 6.60042 35.3071 6.47442C35.1445 7.55273 34.9222 8.62119 34.6414 9.67489C34.5514 9.9557 33.9469 10.2365 33.5618 10.2437C30.9385 10.2905 28.3116 10.2689 25.5515 10.2689C25.2276 9.28248 24.8678 8.15926 24.4252 6.83443Z" fill="#8FEF65"/>
</g>
</g>
<path d="M48.5222 11.009V12.4694H45.2709V21.4178H43.4801V12.4694H40.2649V11.009H48.5222ZM51.4309 10.4381V14.5247C51.9958 13.8676 52.7129 13.5391 53.5823 13.5391C55.229 13.5391 56.0643 14.4806 56.0884 16.3636V21.4178H54.3516V16.4298C54.3516 15.8929 54.2374 15.5143 54.009 15.2939C53.7766 15.0736 53.4361 14.9634 52.9874 14.9634C52.2902 14.9634 51.7714 15.2719 51.4309 15.8889V21.4178H49.6941V10.4381H51.4309ZM61.9057 13.6413L61.8937 15.2699C61.6653 15.2298 61.431 15.2098 61.1906 15.2098C60.3933 15.2098 59.8564 15.5163 59.58 16.1293V21.4178H57.8432V13.6833H59.5019L59.5439 14.5487C59.9646 13.8756 60.5455 13.5391 61.2867 13.5391C61.5351 13.5391 61.7415 13.5732 61.9057 13.6413ZM64.8444 13.6833V21.4178H63.1016V13.6833H64.8444ZM62.9995 11.6761C62.9995 11.4077 63.0836 11.1853 63.2519 11.009C63.4202 10.8327 63.6625 10.7446 63.9791 10.7446C64.2916 10.7446 64.5339 10.8327 64.7062 11.009C64.8785 11.1853 64.9646 11.4077 64.9646 11.6761C64.9646 11.9365 64.8785 12.1529 64.7062 12.3251C64.5339 12.5014 64.2916 12.5896 63.9791 12.5896C63.6625 12.5896 63.4202 12.5014 63.2519 12.3251C63.0836 12.1529 62.9995 11.9365 62.9995 11.6761ZM67.8012 13.6833L69.4599 19.2182L71.0945 13.6833H72.8914L70.2111 21.4178H68.7027L65.9983 13.6833H67.8012ZM77.2905 21.562C76.1887 21.562 75.2953 21.2155 74.6102 20.5223C73.9251 19.8292 73.5825 18.9057 73.5825 17.7519V17.5355C73.5825 16.7623 73.7328 16.0732 74.0332 15.4682C74.3297 14.8592 74.7484 14.3845 75.2893 14.0439C75.8261 13.7074 76.4251 13.5391 77.0862 13.5391C78.1398 13.5391 78.9552 13.8756 79.5321 14.5487C80.105 15.2178 80.3915 16.1673 80.3915 17.3973V18.1004H75.3373C75.3894 18.7375 75.6018 19.2423 75.9744 19.6149C76.351 19.9875 76.8217 20.1738 77.3866 20.1738C78.1839 20.1738 78.833 19.8513 79.3338 19.2062L80.2713 20.1017C79.9588 20.5664 79.5441 20.925 79.0273 21.1774C78.5104 21.4338 77.9315 21.562 77.2905 21.562ZM77.0801 14.9333C76.6034 14.9333 76.2188 15.0996 75.9263 15.4321C75.6338 15.7687 75.4475 16.2334 75.3674 16.8264H78.6727V16.7002C78.6366 16.1193 78.4824 15.6785 78.21 15.3781C77.9375 15.0816 77.5609 14.9333 77.0801 14.9333Z" fill="#133157"/>
<path d="M88.192 15.5645V17.0068H84.0032V21.4179H82.1943V11.0092H88.805V12.4695H84.0032V15.5645H88.192ZM91.918 13.6835V21.4179H90.1812V13.6835H91.918ZM90.073 11.6762C90.073 11.4078 90.1572 11.1854 90.3254 11.0092C90.4977 10.8329 90.7401 10.7447 91.0526 10.7447C91.3691 10.7447 91.6115 10.8329 91.7798 11.0092C91.952 11.1854 92.0382 11.4078 92.0382 11.6762C92.0382 11.9366 91.952 12.153 91.7798 12.3253C91.6115 12.5016 91.3691 12.5897 91.0526 12.5897C90.7401 12.5897 90.4977 12.5016 90.3254 12.3253C90.1572 12.153 90.073 11.9366 90.073 11.6762ZM93.781 13.6835H95.4216L95.4697 14.5789C96.0426 13.8858 96.7938 13.5392 97.7233 13.5392C99.3339 13.5392 100.153 14.4607 100.181 16.3037V21.4179H98.4445V16.4058C98.4445 15.9171 98.3383 15.5545 98.126 15.3181C97.9136 15.0817 97.5671 14.9635 97.0863 14.9635C96.3852 14.9635 95.8643 15.28 95.5238 15.913V21.4179H93.781V13.6835ZM108.348 21.4179H106.576C106.499 21.2697 106.431 21.0293 106.371 20.6967C105.818 21.2737 105.143 21.5621 104.346 21.5621C103.569 21.5621 102.934 21.3398 102.441 20.8951C101.952 20.4544 101.708 19.9075 101.708 19.2544C101.708 18.4291 102.012 17.7961 102.621 17.3554C103.234 16.9147 104.112 16.6943 105.253 16.6943H106.317V16.1835C106.317 15.7828 106.205 15.4623 105.981 15.2219C105.756 14.9815 105.416 14.8614 104.959 14.8614C104.562 14.8614 104.238 14.9595 103.985 15.1558C103.733 15.3561 103.607 15.6086 103.607 15.913H101.87C101.87 15.4884 102.01 15.0917 102.291 14.7231C102.571 14.3545 102.954 14.0641 103.439 13.8517C103.923 13.6434 104.464 13.5392 105.061 13.5392C105.967 13.5392 106.688 13.7676 107.225 14.2243C107.761 14.6771 108.038 15.3161 108.054 16.1414V19.633C108.054 20.3261 108.152 20.881 108.348 21.2977V21.4179ZM104.665 20.1679C105.009 20.1679 105.332 20.0838 105.632 19.9155C105.937 19.7512 106.165 19.5269 106.317 19.2424V17.7881H105.38C104.735 17.7881 104.252 17.9002 103.931 18.1246C103.607 18.345 103.445 18.6615 103.445 19.0741C103.445 19.4067 103.555 19.6711 103.775 19.8674C103.995 20.0677 104.292 20.1679 104.665 20.1679ZM109.851 13.6835H111.485L111.534 14.5789C112.106 13.8858 112.858 13.5392 113.787 13.5392C115.398 13.5392 116.217 14.4607 116.245 16.3037V21.4179H114.508V16.4058C114.508 15.9171 114.402 15.5545 114.19 15.3181C113.977 15.0817 113.631 14.9635 113.15 14.9635C112.449 14.9635 111.928 15.28 111.588 15.913V21.4179H109.851V13.6835ZM121.197 20.1739C121.63 20.1739 121.988 20.0477 122.273 19.7953C122.561 19.5429 122.714 19.2304 122.73 18.8578H124.37C124.35 19.3386 124.2 19.7873 123.919 20.2039C123.639 20.6206 123.256 20.9512 122.772 21.1955C122.291 21.4399 121.772 21.5621 121.215 21.5621C120.133 21.5621 119.276 21.2116 118.643 20.5104C118.01 19.8093 117.693 18.8418 117.693 17.6078V17.4275C117.693 16.2496 118.008 15.3081 118.637 14.6029C119.266 13.8938 120.123 13.5392 121.209 13.5392C122.131 13.5392 122.88 13.8077 123.457 14.3445C124.038 14.8814 124.342 15.5845 124.37 16.4539H122.73C122.714 16.0132 122.563 15.6486 122.279 15.3602C121.994 15.0757 121.634 14.9335 121.197 14.9335C120.632 14.9335 120.197 15.1378 119.893 15.5465C119.589 15.9511 119.434 16.5681 119.43 17.3974V17.6799C119.43 18.5172 119.581 19.1422 119.881 19.5549C120.185 19.9676 120.624 20.1739 121.197 20.1739ZM127.531 13.6835V21.4179H125.788V13.6835H127.531ZM125.686 11.6762C125.686 11.4078 125.77 11.1854 125.939 11.0092C126.107 10.8329 126.349 10.7447 126.666 10.7447C126.978 10.7447 127.221 10.8329 127.393 11.0092C127.565 11.1854 127.651 11.4078 127.651 11.6762C127.651 11.9366 127.565 12.153 127.393 12.3253C127.221 12.5016 126.978 12.5897 126.666 12.5897C126.349 12.5897 126.107 12.5016 125.939 12.3253C125.77 12.153 125.686 11.9366 125.686 11.6762ZM135.813 21.4179H134.04C133.964 21.2697 133.898 21.0293 133.841 20.6967C133.289 21.2737 132.611 21.5621 131.81 21.5621C131.033 21.5621 130.4 21.3398 129.911 20.8951C129.418 20.4544 129.172 19.9075 129.172 19.2544C129.172 18.4291 129.478 17.7961 130.091 17.3554C130.704 16.9147 131.58 16.6943 132.718 16.6943H133.787V16.1835C133.787 15.7828 133.675 15.4623 133.451 15.2219C133.226 14.9815 132.884 14.8614 132.423 14.8614C132.031 14.8614 131.708 14.9595 131.456 15.1558C131.203 15.3561 131.077 15.6086 131.077 15.913H129.34C129.34 15.4884 129.48 15.0917 129.761 14.7231C130.041 14.3545 130.424 14.0641 130.909 13.8517C131.39 13.6434 131.928 13.5392 132.525 13.5392C133.431 13.5392 134.154 13.7676 134.695 14.2243C135.232 14.6771 135.508 15.3161 135.524 16.1414V19.633C135.524 20.3261 135.62 20.881 135.813 21.2977V21.4179ZM132.135 20.1679C132.475 20.1679 132.798 20.0838 133.102 19.9155C133.403 19.7512 133.631 19.5269 133.787 19.2424V17.7881H132.85C132.205 17.7881 131.72 17.9002 131.396 18.1246C131.071 18.345 130.909 18.6615 130.909 19.0741C130.909 19.4067 131.021 19.6711 131.245 19.8674C131.466 20.0677 131.762 20.1679 132.135 20.1679ZM139.19 10.4382V21.4179H137.453V10.4382H139.19Z" fill="#333333"/>
<defs>
<clipPath id="clip0_22_5123">
<rect width="36.058" height="32.0001" fill="white"/>
</clipPath>
<clipPath id="clip1_22_5123">
<rect width="36.4386" height="32.3521" fill="white" transform="translate(0.0380859 -0.0057373)"/>
</clipPath>
</defs>
</svg>
