<svg width="295" height="46" viewBox="0 0 295 46" fill="none" xmlns="http://www.w3.org/2000/svg">
<path d="M26.3423 22.9512C23.9773 22.2894 17.9748 19.323 16.6326 7.87597C16.1862 4.06848 13.2153 0.85614 9.38169 0.85614H0.253817C0.253817 0.85614 -2.25337 12.5189 8.49205 18.5035C13.0213 21.0261 16.7523 21.5598 16.7523 23.1232C16.7523 24.6866 13.0213 25.2202 8.49205 27.7428C-2.25337 33.7297 0.253817 45.3924 0.253817 45.3924H9.38169C13.2153 45.3924 16.1862 42.1801 16.6326 38.3726C17.9748 26.9256 23.9773 23.9592 26.3423 23.2974C26.4195 23.2731 26.4724 23.2048 26.4724 23.1232C26.4724 23.0416 26.4195 22.9732 26.3423 22.949V22.9512Z" fill="#1C1C1C"/>
<path d="M273.106 19H275.891C276.104 18.3835 276.38 17.5332 276.614 16.8316L277.273 14.9822H283.523L284.161 16.8529C284.416 17.5544 284.671 18.341 284.883 19H287.796C287.583 18.341 287.243 17.5332 286.988 16.8529L281.737 2.90735H279.186C279.059 3.31126 278.91 3.71518 278.74 4.18286L273.957 16.7253C273.723 17.4056 273.361 18.3197 273.106 19ZM277.932 13.0689L280.419 6.01109L282.864 13.0689H277.932ZM289.734 19H292.476V16.0451V5.86228V2.90735H289.734V5.86228V16.0451V19Z" fill="#1C1C1C"/>
<path d="M76.8771 40.0443V39.8735C75.3728 38.8356 75.1592 37.3312 75.1592 34.2732V12.1578C75.1592 8.7516 75.2479 7.7662 75.4614 6.46877L75.4155 6.29797L69.1779 7.03045V7.20125C70.4687 8.19321 70.7742 9.56618 70.7742 12.1578V34.2666C70.7742 37.3279 70.5607 38.8356 68.9677 39.8669V40.0443H76.8771Z" fill="#1C1C1C"/>
<path fill-rule="evenodd" clip-rule="evenodd" d="M85.9362 40.6062C90.1767 40.6062 92.2592 39.2858 94.0428 36.5891C94.1577 36.4183 94.3483 36.3165 94.5519 36.3329C94.8344 36.3526 95.0709 36.5333 95.0709 36.8716C95.0709 39.0887 96.6114 40.3894 98.4968 40.3894C101.778 40.3894 101.982 37.4595 101.982 37.4595C101.509 37.8438 101.036 38.0212 100.431 38.0212C99.1406 38.0212 98.4081 37.0752 98.4081 34.661V25.313C98.4081 20.097 94.8804 18.205 90.4526 18.205C85.3351 18.205 80.3392 20.8754 79.9975 25.8746H84.1165C84.8129 25.8746 85.3647 25.3097 85.4468 24.6199C85.8213 21.4831 87.503 20.1889 90.0716 20.1889C92.6402 20.1889 94.161 21.3944 94.161 23.6838C94.1183 26.4232 92.1213 26.998 88.1402 28.141L88.0581 28.164C82.7271 29.7177 79.6724 31.1366 79.6724 35.0585C79.6724 38.7635 82.2935 40.6226 85.9526 40.6226H85.9395L85.9362 40.6095V40.6062ZM83.9129 34.4837C83.9129 31.9414 85.7227 30.9921 89.1618 29.8753C91.7796 29.0115 93.5468 28.4104 94.1512 27.0308V29.0574C94.1512 34.2275 91.3526 37.8504 87.3125 37.8504C85.4632 37.8504 83.9129 36.8584 83.9129 34.4902H83.9096V34.4869L83.9129 34.4837Z" fill="#1C1C1C"/>
<path d="M113.537 40.7802C119.729 40.7802 123.296 36.727 124.071 31.4322H121.709C120.934 35.2686 118.694 38.1098 114.526 38.1098C109.536 38.1098 107.674 33.9318 107.674 28.8866C107.674 23.8414 109.536 20.2677 113.964 20.2677C117.518 20.2677 119.111 22.6622 119.768 25.2012C119.923 25.8023 120.445 26.2589 121.066 26.2589H123.9C123.296 21.8213 119.683 18.2411 113.879 18.2411C107.641 18.2411 102.589 22.3764 102.589 29.5304C102.589 36.6843 107.385 40.7802 113.531 40.7802H113.537V40.7802Z" fill="#1C1C1C"/>
<path d="M176.488 40.6558C185.563 40.6558 191.541 35.0555 192.875 26.2165H190.076C188.917 32.9861 184.401 37.4664 177.388 37.4664C169.173 37.4664 165.376 31.0909 165.376 23.2439C165.376 15.3969 169.518 9.23495 176.872 9.23495C182.265 9.23495 186.053 12.5294 187.587 17.7816C187.751 18.3498 188.26 18.7604 188.851 18.7604H192.573C190.727 10.874 184.532 6.95541 176.872 6.95541C166.89 6.95541 159.736 13.725 159.736 23.8516C159.736 33.2456 166.072 40.659 176.481 40.659H176.484V40.6623L176.488 40.6558Z" fill="#1C1C1C"/>
<path fill-rule="evenodd" clip-rule="evenodd" d="M222.499 40.777C229.295 40.777 233.828 36.208 233.828 29.491C233.828 22.7739 229.299 18.2411 222.499 18.2411C215.7 18.2411 211.171 22.7213 211.171 29.491C211.171 36.2606 215.74 40.777 222.499 40.777ZM215.976 29.491C215.976 23.6312 218.285 20.2677 222.542 20.2677C226.799 20.2677 229.02 23.6279 229.02 29.491C229.02 35.354 226.714 38.7602 222.542 38.7602C218.371 38.7602 215.976 35.3146 215.976 29.491Z" fill="#1C1C1C"/>
<path d="M236.669 23.1154L242.648 40.0543H245.949C246.037 39.3645 246.208 38.8061 246.589 37.6434L250.59 24.8431L255.445 40.0609H258.696C258.775 39.4204 258.949 38.9047 259.196 38.182L259.242 38.0441L259.281 37.9357L259.304 37.8634L264.55 22.9939C265.279 20.8392 265.969 19.8045 267 19.118V18.9899H261.203V19.118C262.494 19.591 262.405 20.8425 261.676 22.9578L257.629 35.1109L252.771 19.8538H250.278L245.548 35.0715L241.419 22.8757C240.733 20.803 240.644 19.6436 241.938 19.1279V18.9998H234.078V19.1279C235.237 19.6896 235.842 20.9837 236.663 23.1384V23.1187L236.669 23.1154Z" fill="#1C1C1C"/>
<path fill-rule="evenodd" clip-rule="evenodd" d="M59.7606 22.8142C59.7606 22.8142 59.7311 22.8044 59.7114 22.8011C59.511 22.7518 59.0314 22.6369 59.0314 22.1442C59.0314 21.704 59.4092 21.5398 59.6654 21.4544C63.3311 20.0978 64.9668 18.3274 64.9668 14.8326C64.9668 9.61658 59.5997 7.41916 52.3274 7.41916H41.0216V7.54726C42.6968 8.6279 42.9136 9.95818 42.9136 13.1903V34.2743C42.9136 37.3356 42.7001 38.8465 41.0216 39.8746V40.0454H52.5902C60.7592 40.0454 66.5993 37.1977 66.5993 30.8682C66.5993 26.7755 63.8172 23.9277 59.7573 22.8175L59.7606 22.8142ZM51.9431 9.53446C56.673 9.53446 59.8986 11.0421 59.8986 15.1348C59.8986 19.2274 56.5844 21.7369 51.8512 21.7369H47.5909V9.53446H51.9398H51.9431ZM52.288 37.9367H47.5975V23.3693H51.9398C57.7504 23.3693 61.2716 25.823 61.2716 30.7368C61.2716 36.0415 57.573 37.9334 52.2814 37.9334H52.2847V37.9367H52.288Z" fill="#1C1C1C"/>
<path d="M200.719 24.7476C200.919 24.7805 201.11 24.6852 201.172 24.4947L201.189 24.4914C202.41 20.9506 205.189 18.7466 210.307 18.7006V21.532C210.307 22.2513 209.709 22.8196 208.99 22.8491C203.793 23.0659 201.619 25.8086 201.619 29.5202V34.434C201.619 37.4526 201.832 38.8716 203.511 39.9095V40.0376H195.463V39.8668C196.968 38.8354 197.227 37.3278 197.227 34.2665V24.7411C197.227 21.509 196.968 20.1787 195.463 19.0981V18.9667H202.217C202.092 19.2393 201.921 19.5054 201.731 19.7944C201.133 20.7108 200.367 21.8933 200.367 24.3436C200.354 24.5407 200.505 24.7148 200.719 24.7476Z" fill="#1C1C1C"/>
<path d="M139.88 30.1181C139.069 29.852 138.599 29.7141 138.599 29.2903C138.599 28.8272 139.066 28.6761 139.884 28.3247C142.281 27.2966 145.037 25.3783 145.037 20.8488C145.037 19.5054 144.919 18.52 144.919 18.52H141.463C140.705 18.52 140.074 19.131 140.074 19.8897C140.074 21.0229 140.012 21.8802 139.985 22.3335C139.759 26.1305 136.786 28.4692 132.713 28.4692V12.1544C132.713 8.74824 132.802 7.71686 133.015 6.42272L132.713 6.29462L126.866 7.02709V7.19789C128.115 8.18985 128.328 9.52998 128.328 12.1544V34.26C128.328 37.3213 128.115 38.8289 126.521 39.8603V40.0311H134.477C132.927 38.9964 132.713 37.318 132.713 34.2633V30.2232C137.696 30.2232 141.325 33.314 141.766 37.8238C141.92 39.3873 142.028 40.0639 143.612 40.0639H146.785C146.785 40.0639 146.926 38.9702 146.926 38.1523C146.926 33.0677 142.403 30.9425 139.88 30.1246V30.1181Z" fill="#1C1C1C"/>
</svg>
