<?xml version="1.0" encoding="UTF-8"?>
<svg id="Layer_2" data-name="Layer 2" xmlns="http://www.w3.org/2000/svg" viewBox="0 0 2464.22 822.25">
  <defs>
    <style>
      .cls-1 {
        fill: #ff7f2b;
      }

      .cls-2 {
        fill: #ebebda;
      }
    </style>
  </defs>
  <g id="Layer_3" data-name="Layer 3">
    <g>
      <path class="cls-2" d="M782.99,189.93c-34.74-59.3-82.82-105.79-144.26-139.44C577.27,16.82,507.03,0,427.96,0s-154.42,17.9-219.58,53.69c-65.19,35.82-116.2,84.43-153.07,145.86C18.43,261,0,331.78,0,411.92s18.96,149.62,56.9,211.58c37.92,61.99,90.56,110.61,157.88,145.86,67.32,35.27,145.31,52.89,234.02,52.89,68.37,0,130.07-11.5,185.12-34.46,55.03-22.96,102.84-56.9,143.45-101.78l-147.46-144.26c-23.52,26.73-50.23,46.24-80.14,58.51-29.92,12.29-63.59,18.43-100.97,18.43-40.63,0-74.81-7.74-102.59-23.24-27.8-15.48-49.16-38.72-64.12-69.73-3.75-7.76-7.03-16-9.84-24.7l550.01-2.55c4.25-21.36,7.47-40.32,9.61-56.9,2.13-16.56,3.21-32.3,3.21-47.28,0-76.94-17.39-145.05-52.1-204.37ZM340.6,226.8c26.18-16.56,56.35-24.84,90.56-24.84s62.51,7.21,84.96,21.64c22.43,14.42,39.52,36.06,51.29,64.91,3.88,9.55,6.97,20.14,9.69,31.21l-304.89,1.68c2.44-7.75,5.13-15.29,8.29-22.46,13.87-31.51,33.91-55.56,60.11-72.14Z"/>
      <path class="cls-2" d="M2188.54,19.23v51.94c-19.74-16.44-41.96-30.5-67.32-41.52-40.63-17.63-86.03-26.44-136.25-26.44-71.59,0-135.71,17.63-192.34,52.89-56.65,35.25-101.25,83.62-133.83,145.05-32.62,61.47-48.9,131.18-48.9,209.17s16.28,149.34,48.9,210.78c32.58,61.46,76.93,109.79,133.04,145.05,56.1,35.27,121.01,52.89,194.74,52.89,48.08,0,92.41-8.81,133.04-26.45,26.05-11.31,48.8-25.93,68.92-43.18v53.61h275.68V19.23h-275.68ZM2045.89,570.6c-28.85,0-55.05-6.94-78.54-20.83-23.52-13.88-41.67-32.86-54.5-56.9-12.82-24.05-19.23-51.55-19.23-82.55s6.66-56.89,20.04-80.94c13.34-24.05,31.5-43.01,54.5-56.9,22.96-13.87,49.41-20.84,79.34-20.84s56.1,6.97,78.54,20.84c22.44,13.89,40.07,32.86,52.89,56.9,12.82,24.05,19.23,51.04,19.23,80.94,0,47.04-13.89,85.5-41.67,115.41-27.79,29.93-64.66,44.88-110.59,44.88Z"/>
      <g>
        <polygon class="cls-1" points="1101.54 19.23 793.51 19.23 1059.83 411.13 793.51 803.02 1101.54 803.02 1367.87 411.13 1101.54 19.23"/>
        <g>
          <polygon class="cls-2" points="1402.56 359.9 1633.97 19.23 1325.94 19.23 1248.52 133.24 1402.56 359.9"/>
          <polygon class="cls-2" points="1402.56 462.35 1633.97 803.02 1325.94 803.02 1248.52 689.01 1402.56 462.35"/>
        </g>
      </g>
    </g>
  </g>
</svg>