<svg xmlns:xlink="http://www.w3.org/1999/xlink" xmlns="http://www.w3.org/2000/svg" width="232" height="50" viewBox="0 0 232 50" fill="none"><script xmlns="" src="chrome-extension://hoklmmgfnpapgjgcpechhaamimifchmp/frame_ant/frame_ant.js"/>
<g clip-path="url(#clip0_456_77)">
<path d="M74.1231 25.3858H77.9088V31.3712C76.237 33.2363 73.9218 34.1689 70.9632 34.1689C68.4864 34.1689 66.4085 33.3488 64.7294 31.7085C63.0503 30.0683 62.2085 27.9975 62.2041 25.496C62.2041 22.9975 63.0605 20.9105 64.7734 19.235C65.585 18.4214 66.5522 17.7799 67.6173 17.3488C68.6823 16.9178 69.8233 16.706 70.972 16.7262C73.3004 16.6916 75.5545 17.5453 77.2764 19.1137L75.324 21.9356C74.7098 21.3675 74.0043 20.9069 73.2373 20.5732C72.58 20.3203 71.881 20.1939 71.1769 20.2006C70.5063 20.1849 69.8396 20.3062 69.2174 20.5571C68.5953 20.8081 68.0309 21.1834 67.5587 21.66C66.5774 22.6315 66.0867 23.9139 66.0867 25.507C66.0867 27.1002 66.5576 28.3752 67.4992 29.332C67.93 29.7909 68.4512 30.1554 69.03 30.4025C69.6088 30.6495 70.2326 30.7737 70.8618 30.7672C72.1649 30.7672 73.2505 30.5181 74.1187 30.0198L74.1231 25.3858Z" fill="#21464E"/>
<path d="M102.169 22.7093C102.169 25.4106 101.1 27.1559 98.961 27.9452L103.229 33.9769H98.6018L94.8558 28.5955H92.2578V33.9769H88.4941V17.1118H94.8844C97.5037 17.1118 99.3723 17.5527 100.49 18.4346C101.608 19.3164 102.168 20.7413 102.169 22.7093ZM97.6344 24.711C98.1016 24.2922 98.3352 23.6308 98.3352 22.7269C98.3352 21.823 98.0935 21.1999 97.6102 20.8574C97.1284 20.5209 96.2844 20.3518 95.0783 20.3504H92.2578V25.346H95.0056C96.2925 25.3415 97.1688 25.1299 97.6344 24.711Z" fill="#21464E"/>
<path d="M125.271 33.9769L123.703 30.3327H116.631L115.065 33.9769H111.067L118.339 17.1118H121.982L129.253 33.9769H125.271ZM120.183 22.1339L118.061 27.0325H122.281L120.183 22.1339Z" fill="#21464E"/>
<path d="M143.647 27.8482L147.94 17.1118H152.016L145.238 33.9769H142.056L135.28 17.1118H139.355L143.647 27.8482Z" fill="#21464E"/>
<path d="M161.251 17.1118H165.012V33.9769H161.251V17.1118Z" fill="#21464E"/>
<path d="M183.534 20.3702V33.9791H179.772V20.3702H174.997V17.1118H188.309V20.3702H183.534Z" fill="#21464E"/>
<path d="M198.293 17.1118H202.054V33.9769H198.293V17.1118Z" fill="#21464E"/>
<path d="M230.174 25.4408C230.197 27.1139 229.731 28.7574 228.834 30.1696C227.968 31.5479 226.713 32.6393 225.229 33.3067C225.398 33.5706 225.636 33.7833 225.917 33.9218C226.215 34.0874 226.551 34.1747 226.893 34.1754C227.229 34.1754 227.563 34.1226 227.882 34.0188C228.158 33.9376 228.419 33.8109 228.653 33.6441C229.012 33.3753 229.315 33.04 229.546 32.6564L231.5 34.9955C230.843 35.7107 230.04 36.2773 229.146 36.6574C228.252 37.0376 227.287 37.2226 226.315 37.2001C225.313 37.1903 224.331 36.9157 223.468 36.4042C222.547 35.8848 221.8 35.1038 221.322 34.1599C218.825 34.1599 216.727 33.3273 215.029 31.6621C213.331 29.9969 212.479 27.9232 212.473 25.4408C212.473 22.9643 213.325 20.8935 215.029 19.2283C216.733 17.5631 218.831 16.7312 221.322 16.7327C223.82 16.7327 225.918 17.5645 227.618 19.2283C229.317 20.892 230.169 22.9628 230.174 25.4408ZM226.34 25.454C226.372 24.0321 225.853 22.6529 224.892 21.6048C224.444 21.104 223.896 20.7033 223.283 20.429C222.67 20.1547 222.006 20.0129 221.334 20.0129C220.663 20.0129 219.999 20.1547 219.386 20.429C218.773 20.7033 218.224 21.104 217.777 21.6048C216.845 22.6679 216.331 24.0336 216.331 25.4474C216.331 26.8612 216.845 28.2269 217.777 29.29C218.226 29.7877 218.775 30.1856 219.388 30.4579C220.001 30.7302 220.664 30.8709 221.334 30.8709C222.005 30.8709 222.668 30.7302 223.281 30.4579C223.893 30.1856 224.442 29.7877 224.892 29.29C225.856 28.244 226.375 26.8633 226.34 25.4408V25.454Z" fill="#21464E"/>
<path d="M49.9787 17.5044V23.3157H33.721C29.2662 23.311 24.9953 21.5385 21.8453 18.387C18.6953 15.2355 16.9236 10.9626 16.9189 6.50573V0H22.7297V6.50353C22.732 9.41966 23.8906 12.2158 25.9513 14.2782C28.0119 16.3406 30.8062 17.5009 33.721 17.5044H49.9787Z" fill="#F19437"/>
<path d="M32.4846 15.9612V0H26.6738V12.9145C28.189 14.5865 30.2481 15.6662 32.4846 15.9612Z" fill="#62BEA9"/>
<path d="M28.0732 23.8691C29.3798 26.8697 31.5326 29.424 34.2679 31.2193C37.0032 33.0146 40.2024 33.973 43.4738 33.9772H49.9743V28.1637H43.4738C41.9907 28.1648 40.5227 27.8644 39.1591 27.2808C37.7955 26.6972 36.5646 25.8425 35.5411 24.7686H33.7077C31.794 24.7671 29.8924 24.4636 28.0732 23.8691Z" fill="#62BEA9"/>
<path d="M33.961 43.4965V50H28.1503V43.4965C28.1479 40.5804 26.9893 37.7843 24.9287 35.7218C22.8681 33.6594 20.0738 32.4991 17.159 32.4956H0V26.6865H17.159C21.6136 26.6918 25.8842 28.4645 29.034 31.6158C32.1839 34.7672 33.9558 39.0398 33.961 43.4965Z" fill="#62BEA9"/>
<path d="M17.4941 50H23.3049V36.2081C21.6744 34.8297 19.6276 34.0407 17.4941 33.9683V50Z" fill="#21464E"/>
<path d="M0 22.7383H6.50266C9.04187 22.7362 11.5028 23.6177 13.4637 25.2317H17.159C18.5387 25.233 19.9137 25.3913 21.2576 25.7035C19.8124 23.0478 17.6785 20.831 15.0804 19.2862C12.4824 17.7413 9.51614 16.9256 6.49384 16.9248H0V22.7383Z" fill="#21464E"/>
</g>
<defs>
<clipPath id="clip0_456_77">
<rect width="231.498" height="50" fill="white"/>
</clipPath>
</defs>
</svg>