<svg xmlns="http://www.w3.org/2000/svg" width="314" height="43" fill="none" viewBox="0 0 314 43">
	<path fill="#231e20"
		  d="M71.449 8.958h6.95v25.98h-6.95v-8.26h-9.02v8.26h-6.95V8.959h6.95v11.879h9.02V8.958ZM86.87 34.94h-6.795l12.65-26.436c.113-.27.34-.27.465 0l12.608 26.435H98.62l-.993-2.212h-9.785l-.951 2.212h-.02Zm5.772-13.44-2.596 6.037h5.274l-2.668-6.038h-.01ZM114.559 8.958h-6.96v25.97h6.96V8.958ZM139.165 34.94h-7.53l-3.63-5.956h-2.597v5.955h-6.95V8.97h9.857c6.992 0 10.932 4.425 10.932 10.194 0 3.742-1.644 6.72-4.706 8.405l4.624 7.371Zm-11.192-11.497c3.134 0 4.282-1.758 4.282-4.28 0-2.523-1.148-4.312-4.282-4.312h-2.565v8.592h2.565ZM162.498 35.28c-7.292 0-13.528-5.5-13.528-13.336 0-7.837 6.185-13.296 13.146-13.296 5.616 0 9.06 2.368 11.232 5.583l-5.233 3.557c-.993-1.53-2.607-3.091-5.886-3.091-3.827 0-6.154 3.173-6.154 7.257s2.41 7.3 6.382 7.3c3.361 0 5.006-1.53 6.113-3.588l5.347 3.442c-2.565 4.312-6.154 6.183-11.429 6.183l.01-.01ZM175.593 24.89V8.97h6.961v15.849c0 2.946 1.375 4.621 4.313 4.621 2.937 0 4.323-1.685 4.323-4.621V8.968h6.95V24.89c0 7-4.778 10.432-11.273 10.432-6.496 0-11.274-3.443-11.274-10.432ZM207.139 14.8h-6.878V8.957h20.706v5.841h-6.878v20.14h-6.95v-20.14ZM230.193 14.8h-6.878V8.957h20.717v5.841h-6.878v20.14h-6.961v-20.14ZM246.328 8.958h18.224v5.841h-11.273v6.038h9.412v5.541h-9.412v2.72h11.811v5.84h-18.762V8.959ZM287.545 34.94h-7.53l-3.63-5.956h-2.606v5.955h-6.951V8.97h9.857c6.992 0 10.933 4.425 10.933 10.194 0 3.742-1.645 6.72-4.696 8.405l4.623 7.371Zm-11.191-11.497c3.134 0 4.282-1.758 4.282-4.28 0-2.523-1.148-4.312-4.282-4.312h-2.565v8.592h2.565ZM286.687 8.958h7.633l5.896 10.587 5.844-10.587h7.302l-9.785 16.81v9.17h-6.961v-8.973l-9.929-17.007ZM306.794 32.54c0-1.447 1.179-2.511 2.565-2.511s2.544 1.064 2.544 2.512c0 1.447-1.168 2.522-2.544 2.522-1.376 0-2.565-1.064-2.565-2.522Zm2.565 2.11c1.138 0 2.037-.89 2.037-2.11 0-1.22-.899-2.098-2.037-2.098s-2.058.9-2.058 2.099c0 1.2.899 2.109 2.058 2.109Zm-.538-.651h-.445v-2.906h1.107c.683 0 1.024.259 1.024.828 0 .516-.331.744-.755.796l.827 1.282h-.496l-.765-1.262h-.507V34h.01Zm.528-1.634c.372 0 .703-.03.703-.476 0-.361-.331-.423-.631-.423h-.6v.9h.528ZM42.51 12.464l-1.862 2.16a23.397 23.397 0 0 1 1.065 6.37c.063 2.15-.206 4.27-.734 6.399l1.717 1.747c-.92 1.034-1.913 1.933-3.051 2.668a2.29 2.29 0 0 0-.745.796c-2.772 4.941-6.826 8.302-12.36 9.739-5.43 1.406-10.57.516-15.38-2.285-3.217-1.871-5.771-4.425-7.757-7.568-.093-.145-.186-.3-.29-.445-.02-.03-.051-.041-.134-.113H0V10.82h2.627c.135-.217.248-.403.352-.579 3.258-5.22 7.881-8.58 13.911-9.81 8.088-1.655 16.394 1.509 21.12 8.694.166.248.363.413.632.537 1.365.62 2.565 1.5 3.63 2.554.072.072.134.155.227.259l.01-.01ZM37.493 33.07c-6.123 1.55-11.377.548-15.442-4.766v10.06h-6.257V24.807H6.195v7.124H3.91c.124.227.196.372.29.517 1.727 2.719 4.002 4.848 6.846 6.358 4.055 2.15 8.358 2.77 12.867 2.057 4.716-.744 8.75-2.833 12.122-6.203.507-.507.972-1.065 1.448-1.602l.01.01ZM36.16 8.784c-3.465-3.857-10.074-7.268-17.531-6.286-2.73.362-5.296 1.23-7.664 2.657a19.635 19.635 0 0 0-6.02 5.634h1.272v6.338h9.599V5.113h6.236v5.862c0 .476-.01.962 0 1.438.01.475-.062.96.062 1.467.052-.051.073-.062.083-.072.083-.114.176-.227.259-.341a11.98 11.98 0 0 1 5.026-3.97c2.638-1.117 5.379-1.272 8.182-.806.145.02.29.04.507.072v.02h-.01Zm4.5 18.288c1.189-4.073 1.075-8.012-.404-11.992l-1.479 1.685c-.331-.28-.6-.517-.869-.744-.724-.6-1.51-1.117-2.379-1.49-3.806-1.633-7.86.208-9.07 4.126a8.226 8.226 0 0 0-.27 3.618c.528 3.784 3.703 6.752 8.234 5.78 1.427-.31 2.596-1.086 3.682-2.016.269-.228.527-.455.827-.714.29.3.559.59.838.858.269.28.548.548.88.88h.01v.01Z"/>
</svg>
