<?xml version="1.0" encoding="UTF-8"?>
<svg width="123px" height="35px" viewBox="0 0 123 35" version="1.1" xmlns="http://www.w3.org/2000/svg" xmlns:xlink="http://www.w3.org/1999/xlink">
    <!-- Generator: Sketch 50.1 (55044) - http://www.bohemiancoding.com/sketch -->
    <title>Page 1</title>
    <desc>Created with Sketch.</desc>
    <defs>
        <polygon id="path-1" points="0.0377760684 0.2751 17.246212 0.2751 17.246212 34.649895 0.0377760684 34.649895"></polygon>
        <polygon id="path-3" points="0.00028034188 0.2751 17.2087162 0.2751 17.2087162 34.649895 0.00028034188 34.649895"></polygon>
        <polygon id="path-5" points="0.0976290598 0.160755 18.8326667 0.160755 18.8326667 18.874555 0.0976290598 18.874555"></polygon>
    </defs>
    <g id="Page-1" stroke="none" stroke-width="1" fill="none" fill-rule="evenodd">
        <g id="Home-Page-V1-Copy" transform="translate(-150.000000, -18.000000)">
            <g id="Page-1" transform="translate(150.000000, 18.000000)">
                <g id="Group-3" transform="translate(17.170940, 0.074935)">
                    <mask id="mask-2" fill="white">
                        <use xlink:href="#path-1"></use>
                    </mask>
                    <g id="Clip-2"></g>
                    <path d="M0.0377760684,0.274995 C9.52629744,0.274995 17.246212,7.985145 17.246212,17.462445 C17.246212,26.940095 9.52629744,34.649895 0.0377760684,34.649895 L0.0377760684,29.737645 C6.81328889,29.737645 12.3251607,24.231795 12.3251607,17.464895 C12.3251607,10.697995 6.81328889,5.192845 0.0377760684,5.192845 L0.0377760684,0.274995 Z" id="Fill-1" fill="#D5B8E4" mask="url(#mask-2)"></path>
                </g>
                <g id="Group-6" transform="translate(0.000000, 0.074935)">
                    <mask id="mask-4" fill="white">
                        <use xlink:href="#path-3"></use>
                    </mask>
                    <g id="Clip-5"></g>
                    <path d="M17.2087162,0.274995 L17.2087162,5.192845 C10.4335538,5.192845 4.92133162,10.697995 4.92133162,17.464895 C4.92133162,24.231795 10.4335538,29.737645 17.2087162,29.737645 L17.2087162,34.649895 C7.71984444,34.649895 0.00028034188,26.940095 0.00028034188,17.462445 C0.00028034188,7.985145 7.71984444,0.274995 17.2087162,0.274995" id="Fill-4" fill="#974EBC" mask="url(#mask-4)"></path>
                </g>
                <path d="M47.7934197,5.28311 L44.2593598,5.28311 L44.2593598,29.77156 L60.1585991,29.77156 L60.1585991,26.80811 C60.1585991,26.14206 59.6150863,25.59921 58.9482231,25.59921 L49.0051974,25.59921 L49.0051974,6.49341 C49.0051974,5.82596 48.4616846,5.28311 47.7934197,5.28311" id="Fill-7" fill="#974EBC"></path>
                <path d="M76.4213718,29.77149 L79.4939188,29.77149 L79.4939188,11.81369 L76.1567991,11.81369 C75.4839786,11.81369 74.9380128,12.35934 74.9380128,13.03134 L74.9380128,23.59364 L74.8998162,23.64264 C74.4694915,24.19109 72.8806538,25.97749 70.4851325,25.97749 C69.8095085,25.97749 68.5357051,25.82279 67.5899017,24.78399 C66.9128761,24.01679 66.6370897,23.07459 66.6370897,21.52969 L66.6370897,11.81369 L63.2621239,11.81369 C62.6106795,11.81369 62.0815342,12.34254 62.0815342,12.99214 L62.0815342,21.33999 C62.0815342,23.87189 62.6572863,25.75524 63.8942949,27.26934 C65.3520726,29.07289 67.6323034,30.14949 69.9938333,30.14949 C71.8318248,30.14949 73.5040641,29.52544 74.8283291,28.34454 L75.1279444,28.07609 L75.1279444,28.47824 C75.1279444,29.19084 75.7079017,29.77149 76.4213718,29.77149" id="Fill-9" fill="#974EBC"></path>
                <path d="M98.4599581,29.77149 L101.808291,29.77149 L101.808291,20.62179 C101.808291,17.74024 101.254967,15.85514 99.9601376,14.31759 C98.4301718,12.48569 96.1657103,11.43569 93.7453085,11.43569 C91.8663171,11.43569 90.1618385,12.04469 88.6798812,13.24624 L88.3858726,13.48529 L88.3858726,11.81369 L85.198035,11.81369 C84.5479923,11.81369 84.0184966,12.34254 84.0184966,12.99214 L84.0184966,28.55664 C84.0184966,29.22584 84.5648128,29.77149 85.2348299,29.77149 L88.5744026,29.77149 L88.5744026,17.99749 L88.608394,17.94989 C89.1908043,17.13999 90.9047444,15.60769 93.2158128,15.60769 C94.3841376,15.60769 95.4101889,15.98884 96.1036846,16.68044 C96.9089667,17.48579 97.2523855,18.55259 97.2523855,20.24519 L97.2523855,28.56539 C97.2523855,29.23004 97.7941462,29.77149 98.4599581,29.77149" id="Fill-11" fill="#974EBC"></path>
                <g id="Group-15" transform="translate(104.076923, 11.274935)">
                    <mask id="mask-6" fill="white">
                        <use xlink:href="#path-5"></use>
                    </mask>
                    <g id="Clip-14"></g>
                    <path d="M14.2769709,12.312755 L14.2447316,12.359305 C13.2242872,13.826855 11.5142017,14.702555 9.67340684,14.702555 C6.81076581,14.702555 4.65318462,12.481455 4.65318462,9.536555 C4.65318462,6.570655 6.76310769,4.332755 9.55951795,4.332755 C11.4174838,4.332755 13.1230137,5.186055 14.2405265,6.671805 L14.2769709,6.719755 L14.2769709,12.312755 Z M15.7603299,18.496555 L18.8328769,18.496555 L18.8328769,0.538755 L15.6930479,0.538755 C15.0156718,0.538755 14.4655009,1.088605 14.4655009,1.764455 L14.4655009,2.211755 L14.1714923,1.971305 C12.7179197,0.786205 10.9006034,0.160755 8.91613333,0.160755 C3.97090256,0.160755 0.0976290598,4.279555 0.0976290598,9.536555 C0.0976290598,11.888205 0.915176068,14.126455 2.39888547,15.838305 C4.03432991,17.740205 6.57037265,18.874555 9.18105641,18.874555 C11.0765179,18.874555 12.7557658,18.265905 14.1686889,17.065405 L14.4655009,16.813755 L14.4655009,17.203305 C14.4655009,17.915905 15.0468598,18.496555 15.7603299,18.496555 Z" id="Fill-13" fill="#974EBC" mask="url(#mask-6)"></path>
                </g>
            </g>
        </g>
    </g>
</svg>