<svg xmlns="http://www.w3.org/2000/svg" width="282" height="55" fill="none"><g fill="#fff" clip-path="url(#a)"><path d="M80.544 46.396V8.621h7.817L99.94 37.498h.191L111.708 8.62h7.817v37.775h-6.084V19.51h-3.12l6.899-9.85-14.889 36.736h-4.593L82.849 9.66l6.899 9.85h-3.12v26.886h-6.084ZM137.811 46.933c-2.721 0-5.096-.572-7.107-1.749-2.01-1.16-3.57-2.822-4.679-4.968-1.11-2.147-1.664-4.727-1.664-7.704v-.052c0-2.96.554-5.523 1.681-7.687 1.127-2.164 2.687-3.808 4.697-4.968 2.011-1.16 4.351-1.731 7.054-1.731 2.704 0 5.079.57 7.089 1.73 2.011 1.16 3.588 2.823 4.698 4.97 1.109 2.146 1.681 4.708 1.681 7.703v.052c0 2.995-.555 5.574-1.664 7.738-1.109 2.164-2.669 3.81-4.68 4.969-2.01 1.16-4.385 1.731-7.106 1.731v-.034Zm.034-5.263c1.387 0 2.583-.364 3.588-1.074 1.006-.71 1.803-1.765 2.34-3.133.555-1.368.832-3.03.832-4.969v-.051c0-1.922-.277-3.567-.832-4.917-.554-1.368-1.352-2.406-2.374-3.116-1.023-.71-2.219-1.074-3.606-1.074-1.386 0-2.53.364-3.553 1.074-1.022.71-1.82 1.748-2.392 3.116-.572 1.368-.849 2.995-.849 4.917v.051c0 1.94.277 3.584.849 4.969.572 1.368 1.37 2.406 2.392 3.133 1.023.728 2.219 1.074 3.605 1.074ZM167.727 46.933c-2.721 0-5.096-.572-7.107-1.749-2.01-1.16-3.57-2.822-4.679-4.968-1.11-2.147-1.664-4.727-1.664-7.704v-.052c0-2.96.554-5.523 1.681-7.687 1.127-2.164 2.687-3.808 4.697-4.968 2.011-1.16 4.351-1.731 7.054-1.731 2.704 0 5.079.57 7.089 1.73 2.011 1.16 3.588 2.823 4.698 4.97 1.109 2.146 1.681 4.708 1.681 7.703v.052c0 2.995-.555 5.574-1.664 7.738-1.109 2.164-2.669 3.81-4.68 4.969-2.01 1.16-4.385 1.731-7.106 1.731v-.034Zm.017-5.263c1.387 0 2.583-.364 3.588-1.074 1.005-.71 1.803-1.765 2.34-3.133.554-1.368.832-3.03.832-4.969v-.051c0-1.922-.278-3.567-.832-4.917-.555-1.368-1.352-2.406-2.375-3.116-1.022-.71-2.218-1.074-3.605-1.074s-2.53.364-3.553 1.074c-1.023.71-1.82 1.748-2.392 3.116-.572 1.368-.849 2.995-.849 4.917v.051c0 1.94.277 3.584.849 4.969.572 1.368 1.369 2.406 2.392 3.133 1.023.728 2.218 1.074 3.605 1.074ZM185.337 46.396V18.645h6.499v4.345h.156a8.331 8.331 0 0 1 3.207-3.583c1.421-.883 3.189-1.333 5.286-1.333 3.051 0 5.425.917 7.089 2.77 1.664 1.852 2.496 4.38 2.496 7.6v17.952h-6.534V29.742c0-1.974-.468-3.497-1.387-4.57-.919-1.074-2.305-1.61-4.16-1.61-1.248 0-2.322.276-3.258.848a5.76 5.76 0 0 0-2.149 2.354c-.503 1.004-.763 2.181-.763 3.515v16.1h-6.5l.018.017ZM215.478 46.396V8.621h6.517v37.775h-6.517ZM230.956 14.663c-1.006 0-1.872-.346-2.565-1.039a3.434 3.434 0 0 1-1.04-2.51c0-.97.346-1.835 1.04-2.527.693-.693 1.559-1.039 2.565-1.039 1.005 0 1.889.346 2.6 1.039.71.692 1.04 1.523 1.04 2.527 0 1.004-.347 1.818-1.04 2.51-.694.693-1.56 1.04-2.6 1.04Zm-3.241 31.733V18.645h6.517v27.75h-6.517ZM250.074 46.933c-2.878 0-5.027-.624-6.431-1.887-1.404-1.264-2.114-3.324-2.114-6.18V23.647h-3.935v-5.02h3.935v-7.046h6.638v7.046h5.165v5.02h-5.165v14.68c0 1.35.295 2.268.901 2.788.607.52 1.491.779 2.652.779.329 0 .624 0 .884-.035.26-.034.503-.052.728-.069v4.9a34.55 34.55 0 0 1-1.404.155c-.555.052-1.161.07-1.854.07v.017ZM269.434 46.933c-2.773 0-5.165-.589-7.176-1.749-1.993-1.177-3.536-2.822-4.593-4.968-1.074-2.147-1.594-4.692-1.594-7.618v-.034c0-2.909.537-5.454 1.611-7.635 1.075-2.164 2.583-3.86 4.542-5.072 1.958-1.212 4.246-1.8 6.898-1.8 2.652 0 4.922.57 6.864 1.73 1.924 1.16 3.414 2.788 4.454 4.883 1.04 2.094 1.56 4.535 1.56 7.322v2.095h-22.688v-4.345h19.585l-3.154 4.05v-2.51c0-1.817-.277-3.323-.832-4.535-.555-1.212-1.335-2.112-2.305-2.718-.971-.606-2.097-.9-3.38-.9s-2.444.311-3.449.935c-1.006.623-1.786 1.54-2.357 2.77-.572 1.229-.85 2.7-.85 4.449v2.51c0 1.696.278 3.133.85 4.328.571 1.194 1.369 2.112 2.426 2.752 1.057.641 2.305.953 3.744.953 1.075 0 2.028-.173 2.86-.502.814-.347 1.49-.78 2.028-1.316.537-.537.901-1.125 1.109-1.749l.052-.19h6.084l-.052.294a9.868 9.868 0 0 1-1.266 3.134c-.606 1.021-1.438 1.939-2.461 2.77-1.022.83-2.253 1.471-3.674 1.956-1.422.485-3.016.727-4.819.727l-.017-.017Z"/><path fill-rule="evenodd" d="M27.524 0C12.324 0 0 12.309 0 27.509 0 42.709 12.323 55 27.524 55c15.2 0 27.524-12.309 27.524-27.491C55.048 12.326 42.725 0 27.524 0Zm0 50.309a1.05 1.05 0 0 1-1.075 1.038C13.745 50.793 3.622 40.32 3.622 27.491c0-12.828 10.123-23.267 22.827-23.82a1.04 1.04 0 0 1 1.075 1.038v45.6Z" clip-rule="evenodd"/></g><defs><clipPath id="a"><path fill="#fff" d="M0 0h282v55H0z"/></clipPath></defs></svg>