<?xml version="1.0" encoding="UTF-8"?> <svg xmlns="http://www.w3.org/2000/svg" width="162.274" height="68.616" viewBox="0 0 162.274 68.616"><g id="thrive-financial-services-white" transform="translate(-539.772 -109.611)"><path id="Path_25" data-name="Path 25" d="M543.556,138.55h-3.514l-.27-1.081L549.88,124.55h1.243v8.162h6.541a13.307,13.307,0,0,1,.216,1.46c.035.432.054.883.054,1.351,0,.505-.019.991-.054,1.459a14.953,14.953,0,0,1-.216,1.568h-6.541v10.972a10.966,10.966,0,0,0,.27,2.7,4,4,0,0,0,.784,1.622,2.561,2.561,0,0,0,1.271.81,6.488,6.488,0,0,0,1.783.217,9.383,9.383,0,0,0,1.595-.135q.783-.135,1.378-.244a10.621,10.621,0,0,1,.541,2.135,13.807,13.807,0,0,1,.162,1.973c0,.4-.01.73-.027,1s-.046.532-.081.784a22.03,22.03,0,0,1-5.135.594q-4.92,0-7.514-2.3t-2.594-7.486Z" fill="#fff"></path><path id="Path_26" data-name="Path 26" d="M567.285,121.145a15.974,15.974,0,0,1,1.892-.216q.972-.054,1.891-.054t1.892.054a17.87,17.87,0,0,1,1.946.216v14.864q.378-.486,1-1.162a8.7,8.7,0,0,1,1.541-1.3,9.075,9.075,0,0,1,2.216-1.054,9.394,9.394,0,0,1,2.973-.433q4.647,0,7.054,2.6t2.4,8.162v17.891a18.121,18.121,0,0,1-1.946.217q-.973.053-1.892.053t-1.892-.053a18.148,18.148,0,0,1-1.946-.217V144.874a8.958,8.958,0,0,0-.919-4.486,3.336,3.336,0,0,0-3.135-1.568,7.049,7.049,0,0,0-1.891.27,3.977,3.977,0,0,0-1.757,1.054,5.927,5.927,0,0,0-1.3,2.189,10.912,10.912,0,0,0-.514,3.676v14.7a18.121,18.121,0,0,1-1.946.217q-.972.053-1.892.053t-1.864-.053a18.12,18.12,0,0,1-1.919-.217Z" fill="#fff"></path><path id="Path_27" data-name="Path 27" d="M602.473,132.712q.81-.162,1.54-.243a14.521,14.521,0,0,1,1.595-.081,11.66,11.66,0,0,1,1.594.108q.783.109,1.541.27a3.13,3.13,0,0,1,.3.784q.135.515.243,1.081t.19,1.135c.054.378.1.694.135.946a13.941,13.941,0,0,1,2.919-3,6.907,6.907,0,0,1,4.324-1.324q.54,0,1.243.054a4.68,4.68,0,0,1,1.027.162,10.543,10.543,0,0,1,.162,1.243q.054.7.054,1.46,0,.919-.081,2a14.6,14.6,0,0,1-.3,2.054,7.44,7.44,0,0,0-1.324-.109h-.892a12.611,12.611,0,0,0-2.054.19,4.715,4.715,0,0,0-2.162,1,5.9,5.9,0,0,0-1.7,2.432,12.154,12.154,0,0,0-.676,4.54v13.3a18.093,18.093,0,0,1-1.946.217q-.972.053-1.891.053t-1.865-.053q-.946-.055-1.973-.217Z" fill="#fff"></path><path id="Path_28" data-name="Path 28" d="M632.312,132.387a22.894,22.894,0,0,0-3.784.325v27.946a22.711,22.711,0,0,0,3.728.324,23.018,23.018,0,0,0,3.783-.324V132.712A22.584,22.584,0,0,0,632.312,132.387Z" fill="#fff"></path><path id="Path_29" data-name="Path 29" d="M643.714,132.766a15.584,15.584,0,0,1,2.405-.324q1.108-.054,1.919-.054,1.081,0,2.162.054a11.277,11.277,0,0,1,2,.27l6.108,20.81,6-20.81q.92-.162,1.946-.243t2.054-.081q.812,0,1.865.054a16.846,16.846,0,0,1,2.405.324l-10.594,27.891a19.974,19.974,0,0,1-2.162.216q-1.136.054-1.892.055c-.54,0-1.154-.019-1.838-.055a11.025,11.025,0,0,1-1.946-.27Z" fill="#fff"></path><path id="Path_30" data-name="Path 30" d="M684.549,149.087a5.647,5.647,0,0,0,2.181,4.517,8.771,8.771,0,0,0,5.192,1.4,20.015,20.015,0,0,0,3.608-.337,20.416,20.416,0,0,0,3.5-.961,12.126,12.126,0,0,1,.987,2.492,12.826,12.826,0,0,1,.467,3.115,25.284,25.284,0,0,1-9.137,1.558,17.719,17.719,0,0,1-6.412-1.039,11.362,11.362,0,0,1-4.361-2.881,11.552,11.552,0,0,1-2.492-4.387,18.318,18.318,0,0,1-.8-5.555,18.117,18.117,0,0,1,.831-5.555,12.974,12.974,0,0,1,2.466-4.517,11.673,11.673,0,0,1,4.049-3.037,13.3,13.3,0,0,1,5.633-1.117,11.98,11.98,0,0,1,4.984.987,10.989,10.989,0,0,1,3.713,2.7,11.38,11.38,0,0,1,2.31,4.075,16.08,16.08,0,0,1,.779,5.062q0,.987-.078,1.947t-.182,1.531Zm10.54-5.139a6.543,6.543,0,0,0-1.376-4.024,4.374,4.374,0,0,0-3.557-1.532,5.123,5.123,0,0,0-3.945,1.454,6.821,6.821,0,0,0-1.61,4.1Z" fill="#fff"></path><g id="Group_7" data-name="Group 7"><path id="Path_31" data-name="Path 31" d="M543.26,168.569h5.39a4.1,4.1,0,0,1,.08.806,4.236,4.236,0,0,1-.08.833h-3.461v2.232h2.748a4.434,4.434,0,0,1,.079.82,4.362,4.362,0,0,1-.079.832h-2.748v3.977a5.927,5.927,0,0,1-1.929,0Z" fill="#fff"></path><path id="Path_32" data-name="Path 32" d="M552.032,168.569a6.009,6.009,0,0,1,.965-.079,6.232,6.232,0,0,1,.977.079v9.5a6.28,6.28,0,0,1-.964.079,6.2,6.2,0,0,1-.978-.079Z" fill="#fff"></path><path id="Path_33" data-name="Path 33" d="M557.9,168.569a4.1,4.1,0,0,1,.78-.079,4.431,4.431,0,0,1,.819.079l3.673,6.051v-6.051a5.53,5.53,0,0,1,.911-.079,3.9,3.9,0,0,1,.793.079v9.5a4.266,4.266,0,0,1-.766.079,4.6,4.6,0,0,1-.806-.079l-3.7-6.038v6.038a4.726,4.726,0,0,1-.859.079,4.512,4.512,0,0,1-.846-.079Z" fill="#fff"></path><path id="Path_34" data-name="Path 34" d="M571,168.569c.186-.026.361-.046.529-.059s.352-.02.555-.02c.176,0,.348.007.515.02s.352.033.555.059l2.973,9.5a7.432,7.432,0,0,1-1.057.079,6.032,6.032,0,0,1-.978-.079l-.529-1.9h-3.144l-.541,1.9a5.651,5.651,0,0,1-.912.079,5.964,5.964,0,0,1-.965-.079Zm2.114,6-1.1-3.99-1.15,3.99Z" fill="#fff"></path><path id="Path_35" data-name="Path 35" d="M579.275,168.569a4.084,4.084,0,0,1,.779-.079,4.43,4.43,0,0,1,.819.079l3.673,6.051v-6.051a5.531,5.531,0,0,1,.912-.079,3.9,3.9,0,0,1,.793.079v9.5a4.275,4.275,0,0,1-.767.079,4.615,4.615,0,0,1-.806-.079l-3.7-6.038v6.038a4.725,4.725,0,0,1-.859.079,4.508,4.508,0,0,1-.845-.079Z" fill="#fff"></path><path id="Path_36" data-name="Path 36" d="M596.45,176.272a5.343,5.343,0,0,1,.449,1.545,6.249,6.249,0,0,1-1.235.331,8.267,8.267,0,0,1-1.183.079,4.954,4.954,0,0,1-1.968-.363,3.915,3.915,0,0,1-1.42-1.018,4.343,4.343,0,0,1-.866-1.552,6.345,6.345,0,0,1-.29-1.955,6.113,6.113,0,0,1,.3-1.962,4.564,4.564,0,0,1,.878-1.566,3.956,3.956,0,0,1,1.414-1.03,4.681,4.681,0,0,1,1.909-.37,7.979,7.979,0,0,1,1.169.079,5.129,5.129,0,0,1,1.156.33,2.928,2.928,0,0,1-.158.773c-.089.251-.185.505-.291.76a5.8,5.8,0,0,0-.819-.225,4.716,4.716,0,0,0-.846-.066,2.385,2.385,0,0,0-1.949.826,3.784,3.784,0,0,0-.68,2.451q0,3.224,2.735,3.223a4.945,4.945,0,0,0,.859-.066A5.767,5.767,0,0,0,596.45,176.272Z" fill="#fff"></path><path id="Path_37" data-name="Path 37" d="M600.414,168.569a5.987,5.987,0,0,1,.964-.079,6.255,6.255,0,0,1,.978.079v9.5a6.3,6.3,0,0,1-.965.079,6.179,6.179,0,0,1-.977-.079Z" fill="#fff"></path><path id="Path_38" data-name="Path 38" d="M608.486,168.569c.185-.026.361-.046.528-.059s.352-.02.555-.02c.176,0,.348.007.515.02s.353.033.555.059l2.973,9.5a7.421,7.421,0,0,1-1.057.079,6.031,6.031,0,0,1-.978-.079l-.528-1.9H607.9l-.541,1.9a5.641,5.641,0,0,1-.912.079,5.943,5.943,0,0,1-.964-.079Zm2.114,6-1.1-3.99-1.149,3.99Z" fill="#fff"></path><path id="Path_39" data-name="Path 39" d="M616.756,168.569a5.85,5.85,0,0,1,.938-.079,6.18,6.18,0,0,1,.965.079V176.4h3.289a3.856,3.856,0,0,1,.053.429c.009.137.013.267.013.39,0,.141,0,.28-.013.416a3.843,3.843,0,0,1-.053.43h-5.192Z" fill="#fff"></path><path id="Path_40" data-name="Path 40" d="M632.055,173.669a5.765,5.765,0,0,1-.806-.376,2.414,2.414,0,0,1-.607-.489,2.016,2.016,0,0,1-.39-.681,3.238,3.238,0,0,1,.092-2.14,2.351,2.351,0,0,1,.654-.865,2.856,2.856,0,0,1,1.018-.529,4.632,4.632,0,0,1,1.334-.178,6.312,6.312,0,0,1,1.262.119,9.489,9.489,0,0,1,1.235.343,4.71,4.71,0,0,1-.423,1.506c-.132-.053-.266-.106-.4-.158a3.084,3.084,0,0,0-.436-.132,4.812,4.812,0,0,0-.522-.086,5.9,5.9,0,0,0-.66-.033,2.735,2.735,0,0,0-.456.039,1.26,1.26,0,0,0-.416.146.816.816,0,0,0-.3.31,1.063,1.063,0,0,0-.119.535.965.965,0,0,0,.092.443.945.945,0,0,0,.251.3,1.579,1.579,0,0,0,.357.211c.132.057.264.112.4.165l.792.3a9.906,9.906,0,0,1,.912.41,2.447,2.447,0,0,1,.693.522,2.194,2.194,0,0,1,.443.753,3.246,3.246,0,0,1,.159,1.09,3.012,3.012,0,0,1-.245,1.228,2.64,2.64,0,0,1-.707.952,3.352,3.352,0,0,1-1.142.621,5.02,5.02,0,0,1-1.566.224q-.437,0-.779-.026a6.056,6.056,0,0,1-.654-.086,5.939,5.939,0,0,1-.615-.152c-.2-.062-.414-.137-.634-.225a5.587,5.587,0,0,1,.145-.8c.071-.278.154-.557.251-.839a6.932,6.932,0,0,0,1.044.337,4.648,4.648,0,0,0,1.044.112,2.374,2.374,0,0,0,1.308-.31,1.051,1.051,0,0,0,.475-.945,1.116,1.116,0,0,0-.112-.528,1.155,1.155,0,0,0-.291-.357,1.777,1.777,0,0,0-.4-.245c-.15-.066-.3-.129-.463-.191Z" fill="#fff"></path><path id="Path_41" data-name="Path 41" d="M639.665,168.569h5.39a4.1,4.1,0,0,1,.08.806,4.236,4.236,0,0,1-.08.833h-3.461v2.061h2.748a4.419,4.419,0,0,1,.079.819,4.349,4.349,0,0,1-.079.832h-2.748v2.51h3.554a4.1,4.1,0,0,1,.079.806,4.237,4.237,0,0,1-.079.833h-5.483Z" fill="#fff"></path><path id="Path_42" data-name="Path 42" d="M648.847,168.569q.582-.066,1.09-.112t1.13-.046a7.788,7.788,0,0,1,1.433.132,3.866,3.866,0,0,1,1.275.469,2.625,2.625,0,0,1,.918.911,2.773,2.773,0,0,1,.35,1.46,3,3,0,0,1-.132.932,2.825,2.825,0,0,1-.337.707,2.952,2.952,0,0,1-.442.522,3.239,3.239,0,0,1-.449.35l-.225.145,2.312,4.016c-.176.018-.361.035-.555.053s-.392.026-.594.026a6.152,6.152,0,0,1-.991-.079l-2.484-4.412.317-.159c.123-.061.273-.141.449-.238a2.8,2.8,0,0,0,.509-.363,1.983,1.983,0,0,0,.416-.529,1.747,1.747,0,0,0-.3-1.955,1.874,1.874,0,0,0-1.229-.39,3.161,3.161,0,0,0-.528.04v8.02c-.159.017-.317.033-.476.046s-.312.019-.462.019-.309,0-.476-.013-.339-.026-.515-.052Z" fill="#fff"></path><path id="Path_43" data-name="Path 43" d="M657.844,168.569c.15-.017.322-.035.516-.053s.365-.026.515-.026a7.469,7.469,0,0,1,1.057.079l2.074,7.491,2.1-7.491c.176-.026.345-.044.508-.053s.328-.013.5-.013.319,0,.482.013.332.027.509.053l-3.065,9.5c-.185.026-.364.046-.536.059s-.354.02-.548.02c-.176,0-.348-.007-.515-.02s-.353-.033-.555-.059Z" fill="#fff"></path><path id="Path_44" data-name="Path 44" d="M669.233,168.569a6,6,0,0,1,.964-.079,6.254,6.254,0,0,1,.978.079v9.5a6.292,6.292,0,0,1-.965.079,6.189,6.189,0,0,1-.977-.079Z" fill="#fff"></path><path id="Path_45" data-name="Path 45" d="M681.374,176.272a5.22,5.22,0,0,1,.284.759,5.524,5.524,0,0,1,.166.786,6.256,6.256,0,0,1-1.236.331,8.253,8.253,0,0,1-1.182.079,4.959,4.959,0,0,1-1.969-.363,3.915,3.915,0,0,1-1.42-1.018,4.324,4.324,0,0,1-.865-1.552,6.315,6.315,0,0,1-.291-1.955,6.113,6.113,0,0,1,.3-1.962,4.564,4.564,0,0,1,.878-1.566,3.974,3.974,0,0,1,1.414-1.03,4.681,4.681,0,0,1,1.909-.37,7.968,7.968,0,0,1,1.169.079,5.128,5.128,0,0,1,1.156.33,2.889,2.889,0,0,1-.158.773c-.088.251-.185.505-.291.76a5.8,5.8,0,0,0-.819-.225,4.711,4.711,0,0,0-.845-.066,2.382,2.382,0,0,0-1.949.826,3.778,3.778,0,0,0-.681,2.451q0,3.224,2.735,3.223a4.945,4.945,0,0,0,.859-.066A5.769,5.769,0,0,0,681.374,176.272Z" fill="#fff"></path><path id="Path_46" data-name="Path 46" d="M685.338,168.569h5.39a4.1,4.1,0,0,1,.079.806,4.237,4.237,0,0,1-.079.833h-3.461v2.061h2.748a4.424,4.424,0,0,1,.079.819,4.354,4.354,0,0,1-.079.832h-2.748v2.51h3.554a4.172,4.172,0,0,1,.079.806,4.313,4.313,0,0,1-.079.833h-5.483Z" fill="#fff"></path><path id="Path_47" data-name="Path 47" d="M696.158,173.669a5.769,5.769,0,0,1-.806-.376,2.419,2.419,0,0,1-.608-.489,2.032,2.032,0,0,1-.389-.681,3.239,3.239,0,0,1,.092-2.14,2.35,2.35,0,0,1,.654-.865,2.859,2.859,0,0,1,1.017-.529,4.639,4.639,0,0,1,1.335-.178,6.319,6.319,0,0,1,1.262.119,9.534,9.534,0,0,1,1.235.343,4.712,4.712,0,0,1-.423,1.506c-.132-.053-.267-.106-.4-.158a3.127,3.127,0,0,0-.436-.132,4.813,4.813,0,0,0-.522-.086,5.909,5.909,0,0,0-.66-.033,2.736,2.736,0,0,0-.456.039,1.261,1.261,0,0,0-.416.146.816.816,0,0,0-.3.31,1.052,1.052,0,0,0-.119.535.966.966,0,0,0,.092.443.944.944,0,0,0,.251.3,1.576,1.576,0,0,0,.357.211q.2.086.4.165l.793.3a9.9,9.9,0,0,1,.912.41,2.449,2.449,0,0,1,.693.522,2.195,2.195,0,0,1,.443.753,3.246,3.246,0,0,1,.159,1.09,3.013,3.013,0,0,1-.245,1.228,2.652,2.652,0,0,1-.707.952,3.346,3.346,0,0,1-1.143.621,5.009,5.009,0,0,1-1.565.224q-.436,0-.78-.026a6.124,6.124,0,0,1-.654-.086,5.92,5.92,0,0,1-.614-.152q-.3-.093-.634-.225a5.586,5.586,0,0,1,.145-.8c.07-.278.154-.557.251-.839a6.929,6.929,0,0,0,1.044.337,4.648,4.648,0,0,0,1.044.112,2.374,2.374,0,0,0,1.308-.31,1.051,1.051,0,0,0,.475-.945,1.115,1.115,0,0,0-.112-.528,1.154,1.154,0,0,0-.291-.357,1.783,1.783,0,0,0-.4-.245c-.15-.066-.3-.129-.462-.191Z" fill="#fff"></path></g><path id="Path_48" data-name="Path 48" d="M628.508,125.485c0-.03,0-.086-.005-.165-.082-1.788-.947-15.523,16.619-15.7a23.8,23.8,0,0,1,3.781.113,14.371,14.371,0,0,1,.2,2.932c-.538,11.661-7.039,13.576-11.451,14.647A31.651,31.651,0,0,1,631.3,128c.068-.688,3.182-4.482,5.753-6.577,4.02-3.275,8.083-3.813,8.393-4.291.324-.5-4.837-.451-6.949.2C630.244,119.867,628.491,125.958,628.508,125.485Z" fill="#849f44"></path></g></svg> 