<svg width="193" height="43" viewBox="0 0 193 43" fill="none" xmlns="http://www.w3.org/2000/svg">
<path d="M68.5375 6.5184C67.9975 5.66822 67.2393 4.9785 66.3419 4.52118C65.4446 4.06385 64.4409 3.85567 63.4357 3.91835C60.9071 3.91835 58.1284 5.42834 58.1284 7.84076C58.1284 10.003 60.5765 11.1377 62.5958 11.7989L64.8742 12.5673C69.3416 14.0952 72.7548 16.2663 72.7548 20.8767C72.7548 25.8892 68.2873 29.481 62.5958 29.481C57.4583 29.481 53.4554 26.1841 52.7675 21.7524L56.7792 21.0197C56.7792 24.0576 59.5133 26.2555 62.9264 26.2555C63.6638 26.2927 64.4013 26.1831 65.096 25.9329C65.7907 25.6828 66.4288 25.2972 66.9732 24.7985C67.5177 24.2997 67.9577 23.6978 68.2676 23.0277C68.5775 22.3575 68.7513 21.6325 68.7788 20.8946C68.7788 17.9282 66.0447 16.6416 63.3017 15.6588L61.1126 14.8457C57.5387 13.4965 54.206 11.7006 54.206 7.85863C54.206 3.39119 58.7538 0.710731 63.5518 0.710731C65.1581 0.645956 66.754 0.995809 68.1859 1.72661C69.6177 2.4574 70.8373 3.54453 71.7273 4.88332L68.5375 6.5184Z" fill="#003F7D"/>
<path d="M88.194 7.65334L82.8331 18.8219H93.6354L88.194 7.65334ZM81.2159 21.9491L77.7313 28.8915H73.6749L88.194 0.112305L102.749 28.8915H98.6389L95.1632 21.967L81.2159 21.9491Z" fill="#003F7D"/>
<path d="M108.414 25.7464H121.754V28.8915H104.447V1.28271H108.414V25.7464Z" fill="#003F7D"/>
<path d="M131.34 25.7464H132.734C140.776 25.7464 144.85 23.0659 144.85 15.0871C144.85 7.10825 140.793 4.43673 132.716 4.43673H131.34V25.7464ZM127.364 1.28271H133.932C143.662 1.28271 148.79 5.75015 148.79 14.9441C148.79 24.3526 143.831 28.8915 133.806 28.8915H127.364V1.28271Z" fill="#003F7D"/>
<path d="M155.715 1.28271H169.814V4.43673H159.682V12.1565H169.439V15.3105H159.682V25.7464H169.814V28.8915H155.715V1.28271Z" fill="#003F7D"/>
<path d="M184.181 4.43673V12.1922H192.625V15.3462H184.181V28.8915H180.214V1.28271H193V4.43673H184.181Z" fill="#003F7D"/>
<path d="M56.8144 35.5389C56.6357 34.9581 56.3945 34.4756 55.7243 34.4756C55.4874 34.4756 55.2601 34.5697 55.0926 34.7373C54.925 34.9049 54.8309 35.1321 54.8309 35.3691C54.8309 36.6647 57.3594 36.1554 57.3594 37.9691C57.3627 38.1706 57.3236 38.3704 57.2448 38.5558C57.1659 38.7411 57.049 38.9078 56.9016 39.0451C56.7542 39.1824 56.5796 39.2872 56.3891 39.3527C56.1986 39.4183 55.9965 39.4431 55.7958 39.4255C55.3689 39.4478 54.9491 39.31 54.6186 39.0389C54.288 38.7679 54.0706 38.3832 54.0089 37.9602L54.536 37.8351C54.5792 38.1414 54.7277 38.423 54.9559 38.6317C55.1842 38.8404 55.478 38.9631 55.7869 38.9788C55.9151 38.9824 56.0427 38.9603 56.1623 38.914C56.2819 38.8677 56.3911 38.7979 56.4834 38.7089C56.5758 38.6199 56.6494 38.5134 56.7001 38.3956C56.7508 38.2778 56.7775 38.151 56.7787 38.0228C56.7787 36.5753 54.2501 37.1829 54.2501 35.4406C54.2545 35.2496 54.2975 35.0616 54.3767 34.8878C54.4558 34.714 54.5694 34.558 54.7106 34.4294C54.8517 34.3008 55.0175 34.2021 55.1979 34.1394C55.3783 34.0767 55.5696 34.0513 55.7601 34.0646C56.1348 34.0781 56.4934 34.2206 56.7751 34.4681C57.0568 34.7156 57.2443 35.0528 57.3058 35.4227L56.8144 35.5389Z" fill="#003F7D"/>
<path d="M58.5929 39.3364H58.0746V35.6463H58.5929V39.3364ZM58.5929 34.7082H58.0746V34.1364H58.5929V34.7082Z" fill="#003F7D"/>
<path d="M59.9418 37.3529L61.3089 35.6463H61.8807L60.8711 36.9062L62.0415 39.3364H61.4786L60.5405 37.3261L59.9418 38.0677V39.3364H59.4147V34.1364H59.9418V37.3529Z" fill="#003F7D"/>
<path d="M63.096 36.0305C63.3628 35.7461 63.7258 35.571 64.1145 35.5391C64.6328 35.5391 65.008 35.825 65.008 36.79V39.3364H64.4809V36.924C64.4809 36.5309 64.5523 35.968 64.0073 35.968C63.6313 36.0286 63.2908 36.2258 63.0513 36.522V39.3364H62.542V34.1364H63.0602L63.096 36.0305Z" fill="#003F7D"/>
<path d="M69.2163 34.4848L68.5373 37.2099H69.9669L69.2163 34.4848ZM71.1016 39.3364H70.5834L70.0741 37.6388H68.3764L67.9029 39.3364H67.3489L68.7964 34.1364H69.5737L71.1016 39.3364Z" fill="#003F7D"/>
<path d="M72.0218 39.3364H71.4767V35.6463H71.995V35.9769C72.2704 35.7073 72.6372 35.551 73.0225 35.5391C73.2034 35.5303 73.3831 35.5725 73.5411 35.661C73.6991 35.7495 73.829 35.8806 73.916 36.0395C74.2245 35.7458 74.6258 35.5689 75.0507 35.5391C75.5779 35.5391 75.9442 35.825 75.9442 36.79V39.3364H75.4349V36.924C75.4349 36.5309 75.4974 35.968 74.9435 35.968C74.5653 35.9939 74.2124 36.1672 73.9606 36.4505V39.3364H73.4335V36.924C73.4335 36.5309 73.505 35.968 72.951 35.968C72.5748 36.001 72.2244 36.1731 71.9682 36.4505L72.0218 39.3364Z" fill="#003F7D"/>
<path d="M78.9284 37.1383C78.9284 36.6647 78.6872 35.9857 78.1511 35.9857C77.615 35.9857 77.2576 36.6111 77.2576 37.1383H78.9284ZM77.2576 37.5761C77.2576 38.6304 77.7043 38.9967 78.2404 38.9967C78.43 38.9727 78.6108 38.9022 78.7667 38.7915C78.9225 38.6809 79.0487 38.5335 79.1339 38.3624L79.5002 38.6125C79.3866 38.8656 79.2001 39.079 78.9645 39.2254C78.729 39.3718 78.4551 39.4447 78.1779 39.4345C77.3559 39.4345 76.7036 38.8716 76.7036 37.4867C76.7036 36.1018 77.3559 35.5389 78.1779 35.5389C79.2411 35.5389 79.5449 36.6737 79.4734 37.5761H77.2576Z" fill="#003F7D"/>
<path d="M80.7512 36.4415C80.9567 36.0037 81.2247 35.5927 81.7698 35.5927H81.9753V36.0662C81.2873 35.9769 80.9388 36.7095 80.7333 37.2456V39.3364H80.233V35.6463H80.7512V36.4415Z" fill="#003F7D"/>
<path d="M83.092 39.3364H82.5738V35.6463H83.092V39.3364ZM83.092 34.7082H82.5738V34.1364H83.092V34.7082Z" fill="#003F7D"/>
<path d="M86.0227 36.6737C85.8976 36.3342 85.6921 35.9678 85.2811 35.9857C84.477 35.9857 84.3251 36.8792 84.3251 37.4868C84.3251 38.0943 84.477 38.9968 85.2811 38.9968C85.4867 38.9753 85.6813 38.8934 85.8403 38.7614C85.9993 38.6294 86.1157 38.4533 86.1746 38.2552L86.5946 38.4428C86.5041 38.7223 86.3293 38.9669 86.094 39.1429C85.8588 39.319 85.5748 39.4177 85.2811 39.4256C84.4591 39.4256 83.8069 38.8627 83.8069 37.4778C83.8069 36.0929 84.4591 35.53 85.2811 35.53C85.5479 35.5313 85.8071 35.6191 86.0198 35.7802C86.2324 35.9413 86.3871 36.167 86.4605 36.4235L86.0227 36.6737Z" fill="#003F7D"/>
<path d="M89.0604 37.3171C88.569 37.469 87.6665 37.6656 87.6665 38.3357C87.6638 38.4886 87.7197 38.6367 87.8227 38.7496C87.9257 38.8626 88.068 38.9319 88.2205 38.9433C88.4289 38.9251 88.631 38.8622 88.8129 38.7589C88.9948 38.6556 89.1524 38.5143 89.2748 38.3446V37.2635L89.0604 37.3171ZM89.3463 39.3364V38.8629C89.2141 39.0242 89.0513 39.1577 88.8673 39.2559C88.6833 39.354 88.4817 39.4148 88.2741 39.4347C88.0008 39.43 87.7404 39.3175 87.5496 39.1217C87.3588 38.9259 87.2531 38.6627 87.2555 38.3893C87.2555 37.3261 88.3635 37.1027 89.1765 36.8793H89.3463V36.6738C89.3497 36.583 89.3332 36.4925 89.298 36.4087C89.2628 36.3248 89.2098 36.2497 89.1426 36.1884C89.0754 36.1272 88.9957 36.0814 88.9089 36.0541C88.8222 36.0268 88.7306 36.0188 88.6404 36.0305C88.4543 36.0427 88.2743 36.1026 88.1179 36.2043C87.9614 36.3059 87.8337 36.4461 87.7469 36.6113L87.3806 36.3343C87.5103 36.1112 87.6951 35.9251 87.9172 35.7937C88.1393 35.6623 88.3914 35.59 88.6494 35.5838C88.8066 35.574 88.9642 35.5966 89.1124 35.6501C89.2606 35.7036 89.3963 35.787 89.511 35.895C89.6257 36.003 89.7171 36.1334 89.7794 36.2781C89.8417 36.4228 89.8737 36.5788 89.8734 36.7364V38.5233C89.8525 38.8011 89.8859 39.0803 89.9717 39.3453L89.3463 39.3364Z" fill="#003F7D"/>
<path d="M91.1337 39.3363H90.6155V35.6462H91.1337V36.0304C91.403 35.7493 91.7647 35.5748 92.1523 35.5389C92.6705 35.5389 93.0904 35.8249 93.0904 36.7898V39.3363H92.5722V36.9238C92.5722 36.5307 92.6348 35.9678 92.0808 35.9678C91.7091 36.0335 91.3732 36.23 91.1337 36.5218V39.3363Z" fill="#003F7D"/>
<path d="M96.3693 38.8629H98.5762V39.3364H95.8153V34.1364H96.3693V38.8629Z" fill="#003F7D"/>
<path d="M101.319 37.1383C101.319 36.6647 101.078 35.9857 100.533 35.9857C99.9878 35.9857 99.6393 36.6111 99.6393 37.1383H101.319ZM99.6393 37.5761C99.6393 38.6304 100.086 38.9967 100.622 38.9967C100.812 38.9734 100.993 38.9033 101.149 38.7925C101.305 38.6818 101.431 38.5339 101.516 38.3624L101.891 38.6125C101.775 38.8656 101.586 39.0786 101.35 39.2248C101.113 39.3711 100.838 39.4441 100.56 39.4345C99.7376 39.4345 99.0854 38.8716 99.0854 37.4867C99.0854 36.1018 99.7376 35.5389 100.56 35.5389C101.623 35.5389 101.927 36.6737 101.855 37.5761H99.6393Z" fill="#003F7D"/>
<path d="M103.991 35.9323C103.878 35.9344 103.766 35.9596 103.663 36.0063C103.56 36.053 103.468 36.1202 103.392 36.2038C103.316 36.2875 103.257 36.3858 103.221 36.4927C103.184 36.5997 103.169 36.713 103.178 36.8258C103.195 36.9795 103.256 37.1249 103.354 37.2447C103.452 37.3645 103.582 37.4536 103.729 37.5013C103.876 37.549 104.034 37.5532 104.183 37.5135C104.333 37.4738 104.468 37.3919 104.572 37.2775C104.676 37.1632 104.745 37.0212 104.77 36.8687C104.796 36.7162 104.777 36.5595 104.715 36.4176C104.654 36.2756 104.553 36.1543 104.425 36.0683C104.296 35.9822 104.146 35.935 103.991 35.9323ZM103.642 39.1042C103.357 39.1578 102.946 39.3186 102.946 39.6581C102.946 40.1674 103.687 40.1942 104.045 40.1942C104.402 40.1942 105.081 40.1228 105.081 39.6135C105.081 39.1042 104.464 39.1757 104.187 39.1578L103.642 39.1042ZM105.608 35.9859H105.429C105.3 35.9738 105.17 35.9986 105.054 36.0574C105.205 36.2822 105.285 36.5464 105.286 36.8169C105.292 36.9833 105.265 37.1492 105.205 37.3045C105.145 37.4599 105.054 37.6016 104.938 37.721C104.822 37.8404 104.683 37.935 104.53 37.9992C104.376 38.0634 104.211 38.0959 104.045 38.0945C103.84 38.0923 103.637 38.0529 103.446 37.9784C103.339 38.0677 103.133 38.1928 103.133 38.3715C103.133 38.8361 105.59 38.2554 105.59 39.6492C105.59 39.9173 105.501 40.6052 104.027 40.6052C102.829 40.6052 102.454 40.1406 102.454 39.7118C102.454 39.2829 102.785 39.1221 103.088 38.988C102.874 38.8987 102.633 38.7468 102.633 38.4698C102.633 38.1928 102.892 38.0499 103.088 37.7997C102.96 37.674 102.859 37.5238 102.789 37.358C102.72 37.1923 102.685 37.0143 102.686 36.8347C102.683 36.664 102.714 36.4943 102.778 36.3362C102.843 36.1781 102.94 36.0351 103.062 35.916C103.185 35.797 103.33 35.7044 103.49 35.6442C103.65 35.584 103.82 35.5573 103.991 35.566C104.277 35.5653 104.555 35.6561 104.786 35.8251C105.018 35.6303 105.315 35.5313 105.617 35.5481L105.608 35.9859Z" fill="#003F7D"/>
<path d="M108.11 37.3173C107.61 37.4692 106.707 37.6657 106.707 38.3358C106.704 38.4887 106.76 38.6368 106.863 38.7498C106.966 38.8628 107.109 38.932 107.261 38.9434C107.47 38.9258 107.672 38.8632 107.854 38.7598C108.036 38.6565 108.193 38.5149 108.315 38.3448V37.2637L108.11 37.3173ZM108.369 39.3366L108.315 38.863C108.18 39.0265 108.013 39.1608 107.824 39.2575C107.635 39.3543 107.428 39.4116 107.216 39.4259C106.943 39.4212 106.683 39.3087 106.492 39.1129C106.301 38.9171 106.195 38.6539 106.198 38.3805C106.198 37.3173 107.306 37.0939 108.128 36.8705H108.289V36.665C108.292 36.5742 108.275 36.4837 108.24 36.3999C108.205 36.316 108.152 36.2409 108.085 36.1797C108.018 36.1184 107.938 36.0726 107.851 36.0453C107.765 36.018 107.673 36.01 107.583 36.0217C107.397 36.0348 107.217 36.095 107.061 36.1966C106.905 36.2982 106.777 36.4378 106.689 36.6025L106.332 36.3255C106.459 36.1025 106.643 35.9163 106.863 35.7848C107.084 35.6533 107.335 35.581 107.592 35.575C107.749 35.5652 107.907 35.5878 108.055 35.6413C108.203 35.6948 108.339 35.7782 108.453 35.8862C108.568 35.9942 108.659 36.1246 108.722 36.2693C108.784 36.414 108.816 36.57 108.816 36.7276V38.5145C108.799 38.7922 108.833 39.0706 108.914 39.3366H108.369Z" fill="#003F7D"/>
<path d="M110.165 34.1364H109.646V39.3275H110.165V34.1364Z" fill="#003F7D"/>
<path d="M113.471 38.8629H113.989C115.284 38.8629 115.847 38.2017 115.847 36.6917C115.847 35.3604 115.311 34.6188 114.239 34.6099H113.471V38.8629ZM114.203 34.1364C115.713 34.1364 116.392 35.2264 116.392 36.7096C116.392 38.3625 115.713 39.3364 114.069 39.3364H112.926V34.1364H114.203Z" fill="#003F7D"/>
<path d="M119.225 37.1383C119.225 36.6647 118.984 35.9857 118.43 35.9857C117.876 35.9857 117.536 36.6111 117.536 37.1383H119.225ZM117.545 37.5761C117.545 38.6304 117.992 38.9967 118.528 38.9967C118.718 38.975 118.9 38.9055 119.056 38.7945C119.213 38.6836 119.338 38.5349 119.421 38.3624L119.797 38.6125C119.681 38.8656 119.492 39.0786 119.255 39.2248C119.018 39.3711 118.744 39.4441 118.465 39.4345C117.643 39.4345 116.991 38.8716 116.991 37.4867C116.991 36.1018 117.643 35.5389 118.465 35.5389C119.529 35.5389 119.832 36.6737 119.761 37.5761H117.545Z" fill="#003F7D"/>
<path d="M121.923 36.093H121.244V39.3364H120.726V36.093H120.163V35.6463H120.726V34.9583C120.725 34.8339 120.751 34.7107 120.801 34.5967C120.851 34.4827 120.924 34.3804 121.015 34.2963C121.107 34.2121 121.215 34.1481 121.333 34.1083C121.451 34.0684 121.576 34.0536 121.7 34.0648H121.968V34.5115C121.885 34.498 121.8 34.498 121.718 34.5115C121.324 34.5115 121.244 34.7081 121.244 35.0119V35.682H121.923V36.093Z" fill="#003F7D"/>
<path d="M124.559 37.1383C124.559 36.6647 124.318 35.9857 123.764 35.9857C123.21 35.9857 122.87 36.6111 122.87 37.1383H124.559ZM122.879 37.5761C122.879 38.6304 123.335 38.9967 123.862 38.9967C124.053 38.9767 124.235 38.9078 124.392 38.7967C124.548 38.6855 124.673 38.536 124.755 38.3624L125.131 38.6125C125.015 38.8663 124.827 39.08 124.59 39.2264C124.353 39.3728 124.078 39.4453 123.799 39.4345C122.986 39.4345 122.334 38.8716 122.334 37.4867C122.334 36.1018 122.986 35.5389 123.799 35.5389C124.863 35.5389 125.175 36.6737 125.104 37.5761H122.879Z" fill="#003F7D"/>
<path d="M126.364 39.3363H125.845V35.6462H126.364V36.0304C126.632 35.748 126.994 35.5732 127.382 35.5389C127.9 35.5389 128.32 35.8249 128.32 36.7898V39.3363H127.766V36.9238C127.766 36.5307 127.829 35.9678 127.275 35.9678C126.902 36.0312 126.566 36.2282 126.328 36.5218L126.364 39.3363Z" fill="#003F7D"/>
<path d="M131.171 36.4683C131.092 36.3157 130.971 36.189 130.822 36.1034C130.673 36.0178 130.502 35.977 130.331 35.9858C129.991 35.9858 129.67 36.1556 129.67 36.5219C129.67 37.4154 131.617 37.0312 131.617 38.3089C131.616 38.4598 131.585 38.609 131.525 38.7475C131.465 38.8861 131.378 39.0112 131.269 39.1153C131.16 39.2195 131.031 39.3007 130.889 39.354C130.748 39.4074 130.598 39.4318 130.447 39.4258C130.17 39.4361 129.896 39.3699 129.655 39.2343C129.414 39.0987 129.215 38.899 129.08 38.6574L129.491 38.3983C129.576 38.5787 129.711 38.7306 129.881 38.8353C130.051 38.94 130.247 38.9931 130.447 38.988C130.536 38.9992 130.627 38.9916 130.714 38.9655C130.8 38.9394 130.88 38.8954 130.948 38.8364C131.016 38.7775 131.071 38.7048 131.11 38.6231C131.148 38.5415 131.169 38.4527 131.171 38.3625C131.171 37.469 129.232 37.88 129.232 36.5755C129.234 36.4327 129.265 36.2918 129.324 36.1616C129.382 36.0313 129.467 35.9145 129.572 35.8182C129.678 35.7219 129.802 35.6482 129.937 35.6018C130.072 35.5553 130.215 35.537 130.358 35.548C130.6 35.5386 130.841 35.5931 131.056 35.706C131.27 35.8189 131.452 35.9863 131.582 36.1913L131.171 36.4683Z" fill="#003F7D"/>
<path d="M134.45 37.1383C134.45 36.6647 134.209 35.9857 133.664 35.9857C133.119 35.9857 132.77 36.6111 132.77 37.1383H134.45ZM132.779 37.5761C132.779 38.6304 133.226 38.9967 133.753 38.9967C133.943 38.975 134.125 38.9055 134.281 38.7945C134.438 38.6836 134.563 38.5349 134.646 38.3624L135.031 38.6125C134.914 38.8648 134.725 39.0772 134.488 39.2233C134.252 39.3695 133.977 39.4429 133.699 39.4345C132.868 39.4345 132.225 38.8716 132.225 37.4867C132.225 36.1018 132.868 35.5389 133.699 35.5389C134.754 35.5389 135.057 36.6737 134.986 37.5761H132.779Z" fill="#003F7D"/>
<path d="M139.454 37.3171C138.962 37.469 138.06 37.6656 138.06 38.3357C138.057 38.4886 138.113 38.6367 138.216 38.7496C138.319 38.8626 138.461 38.9319 138.614 38.9433C138.821 38.925 139.022 38.862 139.202 38.7587C139.383 38.6553 139.538 38.5141 139.659 38.3446V37.2635L139.454 37.3171ZM139.722 39.3364L139.659 38.8629C139.529 39.0239 139.367 39.1574 139.185 39.2555C139.002 39.3537 138.802 39.4146 138.596 39.4347C138.326 39.4254 138.07 39.3109 137.883 39.1156C137.696 38.9203 137.593 38.6597 137.595 38.3893C137.595 37.3261 138.703 37.1027 139.516 36.8793H139.677V36.6738C139.682 36.5834 139.666 36.4931 139.632 36.4092C139.598 36.3253 139.546 36.25 139.479 36.1886C139.413 36.1272 139.334 36.0812 139.247 36.0539C139.161 36.0266 139.07 36.0186 138.98 36.0305C138.794 36.0436 138.614 36.1037 138.458 36.2053C138.302 36.3069 138.174 36.4466 138.087 36.6113L137.72 36.3343C137.85 36.1112 138.035 35.9251 138.257 35.7937C138.479 35.6623 138.731 35.59 138.989 35.5838C139.146 35.574 139.304 35.5966 139.452 35.6501C139.6 35.7036 139.736 35.787 139.851 35.895C139.965 36.003 140.057 36.1334 140.119 36.2781C140.181 36.4228 140.213 36.5788 140.213 36.7364V38.5233C140.201 38.8009 140.234 39.0785 140.311 39.3453L139.722 39.3364Z" fill="#003F7D"/>
<path d="M141.517 39.3363H140.999V35.6462H141.517V36.0304C141.783 35.7499 142.142 35.5753 142.527 35.5389C143.054 35.5389 143.474 35.8249 143.474 36.7898V39.3363H142.956V36.9238C142.956 36.5307 143.027 35.9678 142.473 35.9678C142.101 36.0312 141.764 36.2282 141.526 36.5218L141.517 39.3363Z" fill="#003F7D"/>
<path d="M146.467 36.5845C146.389 36.4117 146.264 36.2645 146.106 36.1601C145.948 36.0557 145.763 35.9984 145.574 35.9948C144.841 35.9948 144.68 36.9955 144.68 37.5495C144.68 38.6306 145.198 38.988 145.574 38.988C145.77 38.9611 145.955 38.8835 146.112 38.7628C146.269 38.6422 146.391 38.4826 146.467 38.3V36.5845ZM146.467 34.1364H146.994V39.3364H146.467V38.9076C146.365 39.0646 146.226 39.1946 146.063 39.2864C145.899 39.3781 145.716 39.4291 145.529 39.4347C145.029 39.4347 144.18 38.9791 144.18 37.5584C144.18 36.1378 144.912 35.5391 145.547 35.5391C145.721 35.5573 145.89 35.6102 146.043 35.6946C146.197 35.779 146.332 35.8932 146.44 36.0305L146.467 34.1364Z" fill="#003F7D"/>
<path d="M152.561 34.601H150.291V36.3701H151.909V36.8436H150.291V38.8629H152.713V39.3364H149.737V34.1364H152.561V34.601Z" fill="#003F7D"/>
<path d="M155.652 36.5845C155.574 36.4123 155.448 36.2658 155.29 36.1615C155.132 36.0572 154.948 35.9995 154.759 35.9948C154.035 35.9948 153.865 36.9955 153.865 37.5495C153.865 38.6306 154.383 38.988 154.759 38.988C154.954 38.9595 155.139 38.8812 155.295 38.7607C155.452 38.6403 155.575 38.4816 155.652 38.3V36.5845ZM155.652 34.1364H156.17V39.3364H155.652V38.9076C155.547 39.0637 155.406 39.1929 155.242 39.2845C155.077 39.3761 154.893 39.4275 154.705 39.4347C154.205 39.4347 153.356 38.9791 153.356 37.5584C153.356 36.1378 154.089 35.5391 154.732 35.5391C155.083 35.5797 155.403 35.7562 155.625 36.0305L155.652 34.1364Z" fill="#003F7D"/>
<path d="M158.94 35.6465H159.458V39.3366H158.94V38.9524C158.668 39.2276 158.307 39.3983 157.922 39.4349C157.403 39.4349 156.984 39.149 156.984 38.1929V35.6465H157.502V38.05C157.502 38.4431 157.564 39.0149 157.993 39.0149C158.365 38.9439 158.7 38.7447 158.94 38.452V35.6465Z" fill="#003F7D"/>
<path d="M162.38 36.6737C162.255 36.3342 162.05 35.9678 161.639 35.9857C160.844 35.9857 160.683 36.8792 160.683 37.4868C160.683 38.0943 160.844 38.9968 161.639 38.9968C161.844 38.9731 162.037 38.8904 162.196 38.7587C162.354 38.627 162.471 38.4521 162.532 38.2552L162.952 38.4428C162.862 38.7223 162.687 38.9669 162.452 39.1429C162.216 39.319 161.932 39.4177 161.639 39.4256C160.817 39.4256 160.165 38.8627 160.165 37.4778C160.165 36.0929 160.817 35.53 161.639 35.53C161.906 35.5313 162.165 35.6191 162.377 35.7802C162.59 35.9413 162.745 36.167 162.818 36.4235L162.38 36.6737Z" fill="#003F7D"/>
<path d="M165.418 37.3172C164.927 37.4691 164.024 37.6656 164.024 38.3358C164.022 38.4901 164.079 38.6394 164.184 38.7526C164.289 38.8658 164.433 38.9341 164.587 38.9433C164.795 38.925 164.995 38.8621 165.176 38.7587C165.356 38.6554 165.512 38.5141 165.633 38.3447V37.2636L165.418 37.3172ZM165.686 39.3365L165.633 38.8629C165.501 39.0242 165.338 39.1578 165.154 39.2559C164.97 39.3541 164.768 39.4148 164.561 39.4347C164.422 39.4371 164.285 39.4118 164.156 39.3602C164.028 39.3086 163.911 39.2319 163.813 39.1344C163.715 39.037 163.637 38.9209 163.584 38.7929C163.532 38.665 163.505 38.5277 163.506 38.3894C163.506 37.3261 164.614 37.1027 165.427 36.8794H165.597V36.6739C165.6 36.583 165.584 36.4925 165.549 36.4087C165.514 36.3249 165.461 36.2497 165.393 36.1885C165.326 36.1273 165.246 36.0814 165.16 36.0541C165.073 36.0269 164.981 36.0188 164.891 36.0306C164.706 36.0453 164.527 36.1061 164.371 36.2075C164.215 36.3089 164.086 36.4477 163.998 36.6113L163.631 36.3343C163.761 36.1113 163.946 35.9251 164.168 35.7937C164.39 35.6623 164.642 35.5901 164.9 35.5838C165.059 35.5652 165.219 35.5797 165.372 35.6264C165.525 35.6731 165.666 35.751 165.787 35.8551C165.908 35.9593 166.006 36.0874 166.075 36.2314C166.143 36.3755 166.182 36.5322 166.187 36.6917V38.4787C166.175 38.7562 166.208 39.0339 166.285 39.3007L165.686 39.3365Z" fill="#003F7D"/>
<path d="M167.696 35.6462H168.536V36.093H167.696V38.4071C167.696 38.7645 167.696 38.9968 168.116 38.9968C168.257 38.9961 168.398 38.9812 168.536 38.9522V39.3364C168.355 39.3972 168.165 39.4273 167.973 39.4257C167.08 39.4257 167.142 38.836 167.142 38.1569V36.093H166.579V35.6462H167.142V34.449H167.661L167.696 35.6462Z" fill="#003F7D"/>
<path d="M169.519 39.3364H169.001V35.6463H169.519V39.3364ZM169.519 34.7082H169.001V34.1364H169.519V34.7082Z" fill="#003F7D"/>
<path d="M172.673 37.4867C172.673 36.8613 172.521 35.9857 171.717 35.9857C170.913 35.9857 170.761 36.8792 170.761 37.4867C170.761 38.0943 170.913 38.9967 171.717 38.9967C172.521 38.9967 172.673 38.1032 172.673 37.4867ZM170.243 37.4867C170.243 36.1108 170.895 35.5389 171.717 35.5389C172.539 35.5389 173.191 36.1108 173.191 37.4867C173.191 38.8627 172.539 39.4256 171.717 39.4256C170.895 39.4256 170.243 38.8627 170.243 37.4778" fill="#003F7D"/>
<path d="M174.424 39.3363H173.897V35.6462H174.424V36.0304C174.689 35.7479 175.048 35.5729 175.434 35.5389C175.961 35.5389 176.372 35.8249 176.372 36.7898V39.3363H175.854V36.9238C175.854 36.5307 175.916 35.9678 175.362 35.9678C174.993 36.0333 174.66 36.23 174.424 36.5218V39.3363Z" fill="#003F7D"/>
<path d="M181.724 34.601H179.66V36.3254H181.233V36.79H179.66V39.3364H179.106V34.1364H181.724V34.601Z" fill="#003F7D"/>
<path d="M184.297 35.6465H184.816V39.3366H184.297V38.9524C184.026 39.2288 183.665 39.3998 183.279 39.4349C182.761 39.4349 182.385 39.149 182.385 38.1929V35.6465H182.912V38.05C182.912 38.4431 182.975 39.0149 183.395 39.0149C183.768 38.9461 184.103 38.7465 184.342 38.452L184.297 35.6465Z" fill="#003F7D"/>
<path d="M186.138 39.3363H185.62V35.6462H186.138V36.0304C186.405 35.7512 186.763 35.5769 187.148 35.5389C187.675 35.5389 188.095 35.8249 188.095 36.7898V39.3363H187.568V36.9238C187.568 36.5307 187.639 35.9678 187.085 35.9678C186.713 36.0312 186.376 36.2282 186.138 36.5218V39.3363Z" fill="#003F7D"/>
<path d="M191.088 36.5845C191.011 36.411 190.886 36.2633 190.728 36.1587C190.569 36.0542 190.384 35.9973 190.194 35.9948C189.471 35.9948 189.301 36.9955 189.301 37.5495C189.301 38.6306 189.819 38.988 190.194 38.988C190.39 38.9611 190.576 38.8835 190.733 38.7628C190.889 38.6422 191.012 38.4826 191.088 38.3V36.5845ZM191.088 34.1364H191.615V39.3364H191.088V38.9076C190.986 39.0646 190.847 39.1946 190.684 39.2864C190.52 39.3781 190.337 39.4291 190.15 39.4347C189.649 39.4347 188.801 38.9791 188.801 37.5584C188.801 36.1378 189.533 35.5391 190.168 35.5391C190.342 35.5583 190.51 35.6116 190.663 35.6959C190.817 35.7802 190.952 35.8939 191.061 36.0305L191.088 34.1364Z" fill="#003F7D"/>
<path d="M1.40063 0.112305C0.96282 2.43537 0.59649 5.06222 0.346313 7.95712L37.6762 0.112305H1.40063Z" fill="#003F7D"/>
<path d="M37.6764 2.04224L0.149902 21.9849C0.3286 25.6303 0.69493 29.5259 1.29357 33.6002L37.6764 2.04224Z" fill="#003F7D"/>
<path d="M0.248036 9.35985C-0.00469508 12.9966 -0.0643447 16.6442 0.0693384 20.2872L37.6762 1.13977L0.248036 9.35985Z" fill="#E1B928"/>
<path d="M19.5296 19.072L46.0126 42.9996C46.7274 38.5322 47.1652 34.449 47.3528 30.7857L21.7723 17.0885L19.5296 19.072Z" fill="#003F7D"/>
<path d="M22.4064 16.5703L47.4688 29.4455C47.6584 25.8979 47.6584 22.3427 47.4688 18.7951L25.4354 13.9435L22.4064 16.5703Z" fill="#ED2124"/>
<path d="M46.4592 9.54761H30.4925L26.3199 13.1841L47.3526 17.5264C47.1293 14.5958 46.8076 11.9779 46.4592 9.54761Z" fill="#003F7D"/>
</svg>
